<?xml version='1.0' encoding='utf-8'?>
<svg xmlns="http://www.w3.org/2000/svg" width="100%" height="100%" viewBox="0 0 1920 1080" data-theme="dark">
  <style>
        @font-face {
            font-family: 'Inter';
            src: url('assets/fonts/Inter-Regular.ttf') format('truetype');
            font-weight: 400;
            font-style: normal;
            font-display: swap;
        }
        @font-face {
            font-family: 'Inter';
            src: url('assets/fonts/Inter-Bold.ttf') format('truetype');
            font-weight: 600;
            font-style: normal;
            font-display: swap;
        }
        @font-face {
            font-family: 'Inter';
            src: url('assets/fonts/Inter-Bold.ttf') format('truetype');
            font-weight: 800;
            font-style: normal;
            font-display: swap;
        }
        
:root {
    --background: #0f172a;
    --panel: #1e293b;
    --primary-text: #f1f5f9;
    --muted-text: #94a3b8;
    --inverse-text: #0f172a;
    --border: #334155;
    --shadow-color: #000000;
    --icon-pad-bg: #1e293b;
    --art-glow: #7dd3fc;
    --art-glow-opacity: 0.18;
    --art-sheen: #ffffff;
    --art-sheen-opacity: 0.18;
    --art-shadow: #000000;
    --art-shadow-opacity: 0.28;
    --art-muted-line: #64748b;
    --art-panel-tint: #1e293b;
    --font-family: 'Inter', 'Segoe UI', 'Kalam', Roboto, Helvetica, Arial, sans-serif;
    --radius-xl: 16px;
    --font-family-headline: 'Inter', 'Segoe UI', 'Kalam', Roboto, Helvetica, Arial, sans-serif;
    --font-family-body: 'Inter', 'Segoe UI', 'Kalam', Roboto, Helvetica, Arial, sans-serif;
    --font-heading: 'Inter', 'Segoe UI', 'Kalam', Roboto, Helvetica, Arial, sans-serif;
    --font-body: 'Inter', 'Segoe UI', 'Kalam', Roboto, Helvetica, Arial, sans-serif;
    --font-size-h1: 56px;
    --font-size-h2: 40px;
    --font-size-h3: 28px;
    --font-size-body: 24px;
    --font-size-caption: 18px;
    --secondary-text: var(--muted-text);
    --panel-border: var(--border);
    --font-weight-normal: 400;
    --font-weight-medium: 500;
    --font-weight-semibold: 600;
    --font-weight-bold: 700;
    --spacing-gutter-pct: 0.07;
    --spacing-top-pct: 0.15;
    --spacing-bottom-pct: 0.07;
    --spacing-title-y-pct: 0.055;
    --accent-1: #93c5fd;
    --accent-2: #86efac;
    --accent-3: #fcd34d;
    --accent-4: #f9a8d4;
    --accent-5: #c4b5fd;
    --accent-6: #a5f3fc;
}
:root[data-theme="dark"] {
    --background: #0f172a;
    --panel: #1e293b;
    --primary-text: #f1f5f9;
    --muted-text: #94a3b8;
    --inverse-text: #0f172a;
    --border: #334155;
    --shadow-color: #000000;
    --icon-pad-bg: #1e293b;
    --art-glow: #7dd3fc;
    --art-glow-opacity: 0.18;
    --art-sheen: #ffffff;
    --art-sheen-opacity: 0.18;
    --art-shadow: #000000;
    --art-shadow-opacity: 0.28;
    --art-muted-line: #64748b;
    --art-panel-tint: #1e293b;
    --accent-1: #93c5fd;
    --accent-2: #86efac;
    --accent-3: #fcd34d;
    --accent-4: #f9a8d4;
    --accent-5: #c4b5fd;
    --accent-6: #a5f3fc;
}
:root[data-theme="light"] {
    --background: #f8fafc;
    --panel: #ffffff;
    --primary-text: #0f172a;
    --muted-text: #64748b;
    --inverse-text: #ffffff;
    --border: #e2e8f0;
    --shadow-color: #000000;
    --icon-pad-bg: #1e293b;
    --art-glow: #0891b2;
    --art-glow-opacity: 0.10;
    --art-sheen: #ffffff;
    --art-sheen-opacity: 0.34;
    --art-shadow: #0f172a;
    --art-shadow-opacity: 0.14;
    --art-muted-line: #94a3b8;
    --art-panel-tint: #f1f5f9;
    --accent-1: #3b82f6;
    --accent-2: #22c55e;
    --accent-3: #f59e0b;
    --accent-4: #ec4899;
    --accent-5: #8b5cf6;
    --accent-6: #06b6d4;
}</style>
  <rect x="0" y="0" width="1.92E+3" height="1.08E+3" fill="#252a34" stroke="none" id="programmatic_background"/>
  <line id="HEADER_DECOR" x1="960.0" x2="1080.0" y1="90.0" y2="90.0" stroke="var(--accent-1)" stroke-width="6" stroke-linecap="round"/>
  <defs>
    <filter id="svge0b27db9-glow" x="-20%" y="-20%" width="140%" height="140%">
      <feGaussianBlur stdDeviation="8" result="blur"/>
      <feComposite in="SourceGraphic" in2="blur" operator="over"/>
    </filter>
    <filter id="svge0b27db9-drop-shadow" x="-5%" y="-5%" width="110%" height="110%">
      <feDropShadow dx="0" dy="6" stdDeviation="6" flood-color="#000000" flood-opacity="0.3"/>
    </filter>
    <linearGradient id="svge0b27db9-bg-grad" x1="0%" y1="0%" x2="100%" y2="100%">
      <stop offset="0%" stop-color="var(--background)"/>
      <stop offset="100%" stop-color="var(--panel)"/>
    </linearGradient>
    <radialGradient id="svge0b27db9-core-glow" cx="50%" cy="50%" r="50%">
      <stop offset="0%" stop-color="var(--accent-1)" stop-opacity="0.2"/>
      <stop offset="60%" stop-color="var(--accent-1)" stop-opacity="0.1"/>
      <stop offset="100%" stop-color="var(--accent-1)" stop-opacity="0"/>
    </radialGradient>
    <pattern id="svge0b27db9-dot-grid" x="0" y="0" width="40" height="40" patternUnits="userSpaceOnUse">
      <circle cx="2" cy="2" r="1.5" fill="var(--muted-text)" opacity="0.1"/>
    </pattern>
    <radialGradient id="svge0b27db9-universal-edge-vignette" cx="50%" cy="50%" r="72%">
      <stop offset="0%" stop-color="var(--background)" stop-opacity="0"/>
      <stop offset="72%" stop-color="var(--background)" stop-opacity="0.12"/>
      <stop offset="100%" stop-color="var(--primary-text)" stop-opacity="0.08"/>
    </radialGradient>
    <linearGradient id="svge0b27db9-universal-surface-sheen" x1="0%" y1="0%" x2="100%" y2="100%">
      <stop offset="0%" stop-color="var(--art-sheen)" stop-opacity="var(--art-sheen-opacity)"/>
      <stop offset="46%" stop-color="var(--art-sheen)" stop-opacity="0.035"/>
      <stop offset="100%" stop-color="var(--art-panel-tint)" stop-opacity="0.14"/>
    </linearGradient>
    <radialGradient id="svge0b27db9-universal-icon-aura" cx="50%" cy="42%" r="64%">
      <stop offset="0%" stop-color="var(--art-glow)" stop-opacity="var(--art-glow-opacity)"/>
      <stop offset="100%" stop-color="var(--background)" stop-opacity="0"/>
    </radialGradient>
    <radialGradient id="svge0b27db9-orbital-rings-art-glow" cx="50%" cy="52%" r="68%">
      <stop offset="0%" stop-color="var(--inverse-text)" stop-opacity="0.14"/>
      <stop offset="100%" stop-color="var(--background)" stop-opacity="0"/>
    </radialGradient>
    <linearGradient id="svge0b27db9-orbital-rings-art-sheen" x1="16%" y1="0%" x2="86%" y2="100%">
      <stop offset="0%" stop-color="var(--inverse-text)" stop-opacity="0.22"/>
      <stop offset="52%" stop-color="var(--inverse-text)" stop-opacity="0.035"/>
      <stop offset="100%" stop-color="var(--background)" stop-opacity="0.14"/>
    </linearGradient>
    <radialGradient id="svge0b27db9-orbital-depth-glow" cx="50%" cy="50%" r="58%">
      <stop offset="0%" stop-color="var(--art-glow)" stop-opacity="var(--art-glow-opacity)"/>
      <stop offset="58%" stop-color="var(--art-glow)" stop-opacity="0.055"/>
      <stop offset="100%" stop-color="var(--background)" stop-opacity="0"/>
    </radialGradient>
    <linearGradient id="svge0b27db9-orbital-ring-sweep" x1="0%" y1="0%" x2="100%" y2="100%">
      <stop offset="0%" stop-color="var(--background)" stop-opacity="0"/>
      <stop offset="46%" stop-color="var(--art-sheen)" stop-opacity="0.22"/>
      <stop offset="100%" stop-color="var(--background)" stop-opacity="0"/>
    </linearGradient>
    <filter id="svge0b27db9-text-glow" x="-20%" y="-20%" width="140%" height="140%">
      <feDropShadow dx="0" dy="0" stdDeviation="2" flood-color="#000000" flood-opacity="0.4"/>
    </filter>
    <filter id="svge0b27db9-shadow" x="-30%" y="-30%" width="160%" height="160%">
      <feDropShadow dx="0" dy="2" stdDeviation="3" flood-color="#000000" flood-opacity="0.08"/>
      <feDropShadow dx="0" dy="6" stdDeviation="10" flood-color="#000000" flood-opacity="0.12"/>
    </filter>
    <marker id="svge0b27db9-arrowhead" markerWidth="10" markerHeight="7" refX="9" refY="3.5" orient="auto" markerUnits="strokeWidth">
      <polygon points="0 0, 10 3.5, 0 7" fill="var(--muted-text)" opacity="0.6"/>
    </marker>
  </defs>
  <rect width="100%" height="100%" fill="var(--background)" id="CANVAS_BG"/>
  <ellipse id="ORBITAL-RINGS_ART_GLOW" cx="960" cy="600" rx="650" ry="340" fill="url(#svge0b27db9-orbital-rings-art-glow)" opacity="0.84"/>
  <rect id="UNIVERSAL_EDGE_VIGNETTE" width="100%" height="100%" fill="url(#svge0b27db9-universal-edge-vignette)" opacity="0.62"/>
  <rect width="1920" height="1080" fill="url(#svge0b27db9-bg-grad)"/>
  <rect width="1920" height="1080" fill="url(#svge0b27db9-dot-grid)"/>
  <rect id="TITLE_FRAME" x="134" y="25" width="1652" height="70" fill="none" pointer-events="none"/>
  <text id="TITLE" x="960.0" y="59" font-size="48" font-weight="700" fill="#f1f5f9" text-anchor="middle" style="font-size: 60px; font-family: Inter, Segoe UI, Kalam, Roboto, Helvetica, Arial, sans-serif; font-weight: 700; letter-spacing:-1.2px;" data-final-font-size="60">
    <tspan x="960.0" dy="68.00px">Digital Forensic Requirements for UFO Claims</tspan>
  </text>
  <g id="DIAGRAM_MAIN">
    <!-- Center Core Glow -->
    <circle cx="960.0" cy="540.0" r="280" fill="url(#svge0b27db9-core-glow)" pointer-events="none"/>
    <circle cx="960.0" cy="540.0" r="240.0" fill="none" stroke="var(--muted-text)" stroke-width="2" stroke-dasharray="8 8" opacity="0.4"/>
    <circle id="ORBITAL_RINGS_ART_RING_SHEEN_240.0" cx="960.0" cy="540.0" r="240.0" fill="none" stroke="url(#svge0b27db9-orbital-ring-sweep)" stroke-width="3" stroke-dasharray="28 30" opacity="0.46"/>
    <circle cx="960.0" cy="540.0" r="295.0" fill="none" stroke="var(--muted-text)" stroke-width="2" stroke-dasharray="8 8" opacity="0.4"/>
    <circle id="ORBITAL_RINGS_ART_RING_SHEEN_295.0" cx="960.0" cy="540.0" r="295.0" fill="none" stroke="url(#svge0b27db9-orbital-ring-sweep)" stroke-width="3" stroke-dasharray="28 30" opacity="0.46"/>
    <circle cx="960.0" cy="540.0" r="350.0" fill="none" stroke="var(--muted-text)" stroke-width="2" stroke-dasharray="8 8" opacity="0.4"/>
    <circle id="ORBITAL_RINGS_ART_RING_SHEEN_350.0" cx="960.0" cy="540.0" r="350.0" fill="none" stroke="url(#svge0b27db9-orbital-ring-sweep)" stroke-width="3" stroke-dasharray="28 30" opacity="0.46"/>
    <circle cx="960.0" cy="540.0" r="405.0" fill="none" stroke="var(--muted-text)" stroke-width="2" stroke-dasharray="8 8" opacity="0.4"/>
    <circle id="ORBITAL_RINGS_ART_RING_SHEEN_405.0" cx="960.0" cy="540.0" r="405.0" fill="none" stroke="url(#svge0b27db9-orbital-ring-sweep)" stroke-width="3" stroke-dasharray="28 30" opacity="0.46"/>
    <circle cx="960.0" cy="540.0" r="460.0" fill="none" stroke="var(--muted-text)" stroke-width="2" stroke-dasharray="8 8" opacity="0.4"/>
    <circle id="ORBITAL_RINGS_ART_RING_SHEEN_460.0" cx="960.0" cy="540.0" r="460.0" fill="none" stroke="url(#svge0b27db9-orbital-ring-sweep)" stroke-width="3" stroke-dasharray="28 30" opacity="0.46"/>
    <ellipse id="ORBITAL_RINGS_ART_DEPTH_GLOW" cx="960.0" cy="540.0" rx="410" ry="340" fill="url(#svge0b27db9-orbital-depth-glow)" opacity="0.92"/>
    <!-- Central Core Graphic -->
    <circle cx="960.0" cy="540.0" r="180" fill="var(--panel)" stroke="var(--primary-text)" stroke-width="4" filter="url(#svge0b27db9-drop-shadow)"/>
    <circle cx="960.0" cy="540.0" r="165" fill="none" stroke="var(--muted-text)" stroke-width="2" stroke-dasharray="10 5" opacity="0.3"/>
    <circle cx="960.0" cy="540.0" r="140" fill="none" stroke="var(--accent-1)" stroke-width="1" stroke-dasharray="4 4" opacity="0.5"/>
    <circle id="ORBITAL_RINGS_ART_CORE_AURA" cx="960.0" cy="540.0" r="74" fill="url(#svge0b27db9-universal-icon-aura)" opacity="0.72"/>
    <circle cx="960.0" cy="540.0" r="30" fill="var(--primary-text)" opacity="0.1"/>
    <circle id="ORBITAL_RINGS_ART_CORE_GLINT" cx="938" cy="518" r="11" fill="var(--art-sheen)" opacity="0.34"/>
    <!-- Standard Top Global Title -->
    <circle id="ORBITAL_RINGS_ART_NODE_AURA_1" cx="1200.0" cy="540.0" r="58" fill="var(--accent-5)" opacity="0.72" fill-opacity="0.15" stroke="var(--accent-5)" stroke-opacity="1.0"/>
    <circle id="ITEM_1_BORDER" cx="1200.0" cy="540.0" r="42" fill="var(--icon-pad-bg)" stroke="var(--accent-5)" filter="url(#svge0b27db9-drop-shadow)" stroke-opacity="1.0"/>
    <circle id="ITEM_1_STROKE" cx="1200.0" cy="540.0" r="34" fill="none" stroke="var(--accent-1)" stroke-width="3" stroke-dasharray="6 4" opacity="0.95"/>
    <!-- Node Icon Placeholder -->
    <circle id="ITEM_1_PAD" cx="1204.00" cy="544.00" r="44.80" fill="var(--icon-pad-bg)" stroke="var(--primary-text)" stroke-width="2" opacity="0.9"/>
    <circle id="ITEM_1_PAD_INNER" cx="1204.00" cy="544.00" r="34.94" fill="var(--accent-5)" fill-opacity="0.22"/>
    <g id="ITEM_1_ICON" transform="translate(1176.0, 516.0)" data-icon-size="56" stroke-dasharray="6 4">
      <g transform="translate(-8.648585365853654,-8.364487804878044) scale(0.5681951219512195)">
        <path fill="#B1E4FF" d="M20.5 10.5C35.1.2 58 1 75.2 14.7c8.3 6.6 14.8 15.9 21.5 23.2c6.4 6.9 15.2 14.3 18.9 19.2c10.1 13.2 16.8 30.4-2.5 53.2c-11 13-30.7 19.7-53.5 10.2c-28.8-12.1-43-32.8-50.4-50.5c-5.7-13.8-12-43.3 11.3-59.5"/>
        <path fill="#004FAC" d="M61.6 12.8c8.8 3.9 18.2 11.6 24.8 20.9c8.5 12 12 13.9 17.8 17.1c6.5 3.6 3.7 10.4-3.6 8.1c-3.2-1-7.6-3.1-20.2-19.5c-5.8-7.6-10.8-13.8-22.2-19.2c-4-2-1.2-9.5 3.4-7.4M50 17.1c-12.9-1-18.2 2.8-25.5 8.6c-4.7 3.7-8.6-1.9-6.4-4.7C26.8 9.8 41.8 6.8 51.4 9c4.4 1 3.6 8.5-1.4 8.1M19.4 33.4c-6.9 15.9-.7 36 18.6 57.6c4 4.4-.7 8.3-3.7 5.8C12.8 79 2.8 47.4 12.1 30c2.5-4.6 9.2-1 7.3 3.4"/>
        <path fill="#004FAC" d="M47.6 106.4c-.3-3.8.7-8.6-4.9-16.1c-3-3.9-14-17-15.8-24.9c-1-4.2 5.5-6.2 7.2-1.9C37 70.8 40 74.6 45.2 80.7c11.1 12.8 10.5 20.6 10.1 26.1c-.5 4.7-7.3 4.7-7.7-.4m24.2-5.2c.9 9.6-2.6 14.4-4 16.3c-1.9 2.4-8.2 1.6-6.5-3.7C65.9 99.4 57.5 90.2 56 85c-1.5-5 3.1-7.1 5.6-5.8c3.7 1.9 5.7 7.1 6.9 9.4c3.5 2.2 16.5 10.5 39.6 11c5.5.1 5.6 7.2.3 8.2c-16.5 3-36.6-6.6-36.6-6.6"/>
        <path fill="#004FAC" d="M94.3 112.1c-2.1-.9-13.8-3.2-21.4 3.1c-1.9 1.6-1.9 5.8 1.8 6.3c3 .3 5.3-1 9.8-1.7c4.2-.7 6.2-.5 9.5-.3c3.5.1 5.7-5 .3-7.4m23.7-30c-2.6-.5-4.2.3-8.4.2c-3.9 0-6.1-.8-9.3-.2c-3.8.8-4.9 7.7-.1 9.2c2.8.9 15.3 1.7 19.5-.8c3.1-1.6 3.3-7.5-1.7-8.4m-30.3-4c1.3.3 3.7 1.1 5 1.8c4.1 2.1 2.1 9.7-2.6 9.7c-1.8 0-5.3-1.2-6.6-2c-4.1-2.7-1.6-10.9 4.2-9.5"/>
        <path fill="#004FAC" d="M79.8 74.5c3.6 3 .6 10.3-4.4 9c-5.7-1.4-12.3-9.5-13.9-17.2c-2.6-12.4-8.3-15.8-12.3-13.2c-4.4 2.9-1.1 10.4 2.8 12.5c11.6 6.4 4.5 15.1-1 11.5c-17.5-11.3-14.6-29.3-6.5-33.8c11-6 21.9 5.8 24.8 17c2.4 9.3 6.9 11.2 10.5 14.2"/>
        <path fill="#004FAC" d="M31.5 55.2c.1 3.2-6.3 4.1-7.1.7c-1-4.1-2.4-19.8 10.2-27.5c9.7-5.9 22-4.4 31.2 3.8c13.6 12.1 20.8 28.1 29.8 32c7.9 3.4 17 1.7 19 1.7c5.2.1 5.8 8-1.1 9.1c-11.2 1.8-24.8-1.9-30.6-8.5c-4.2-4.8-11.7-16-16.7-21.9c-5.3-6.3-11.7-11.3-19.7-10.4c-6.9.7-15.7 4.8-15 21"/>
      </g>
    </g>
    <line x1="1248.0" y1="540.0" x2="1260.0" y2="540.0" stroke="var(--accent-1)" stroke-width="2" stroke-dasharray="2 2" opacity="0.5"/>
    <circle cx="1260.0" cy="540.0" r="3" fill="var(--accent-1)"/>
    <!-- Node 1 Frames -->
    <rect id="ITEM_1_HEAD_FRAME" x="1270.0" y="500.0" width="260" height="40" fill="none" pointer-events="none"/>
    <rect id="ITEM_1_BODY_FRAME" x="1270" y="540.0" width="380" height="120" fill="none" pointer-events="none"/>
    <rect id="ITEM_1_TEXT_BG" x="1252" y="486" width="416" height="192" rx="22" fill="var(--panel)" fill-opacity="0.94" stroke="var(--primary-text)" stroke-width="2"/>
    <text id="ITEM_1_HEAD" x="1270.0" y="500.0" font-family="var(--font-heading)" font-weight="bold" font-size="28" fill="var(--accent-5)" text-anchor="start" data-bg-id="ITEM_1_TEXT_BG" fill-opacity="1.0" stroke="none" style="font-size: 26px; font-family: Inter, Segoe UI, Kalam, Roboto, Helvetica, Arial, sans-serif; font-weight: 700; letter-spacing:-0.4px;" data-final-font-size="26">
      <tspan x="1270.0" dy="25.85px">Cryptographic Hashes</tspan>
    </text>
    <text id="ITEM_1_BODY" x="1270.0" y="540.0" font-family="var(--font-body)" font-size="20" fill="var(--primary-text)" opacity="0.8" text-anchor="start" data-bg-id="ITEM_1_TEXT_BG" style="font-size: 26px; font-family: Inter, Segoe UI, Kalam, Roboto, Helvetica, Arial, sans-serif; font-weight: 400;" data-final-font-size="26">
      <tspan x="1270.0" dy="26.86px">SHA-256 fingerprints ensure</tspan>
      <tspan x="1270.0" dy="29.90px">files remain unaltered</tspan>
      <tspan x="1270.0" dy="29.90px">over time</tspan>
    </text>
    <circle id="ORBITAL_RINGS_ART_NODE_AURA_2" cx="665.0" cy="540.0" r="58" fill="var(--accent-6)" opacity="0.72" fill-opacity="0.15" stroke="var(--accent-6)" stroke-opacity="1.0"/>
    <circle id="ITEM_2_BORDER" cx="665.0" cy="540.0" r="42" fill="var(--icon-pad-bg)" stroke="var(--accent-6)" filter="url(#svge0b27db9-drop-shadow)" stroke-opacity="1.0"/>
    <circle id="ITEM_2_STROKE" cx="665.0" cy="540.0" r="34" fill="none" stroke="var(--accent-2)" stroke-width="3" stroke-dasharray="6 4" opacity="0.95"/>
    <!-- Node Icon Placeholder -->
    <circle id="ITEM_2_PAD" cx="669.00" cy="544.00" r="44.80" fill="var(--icon-pad-bg)" stroke="var(--primary-text)" stroke-width="2" opacity="0.9"/>
    <circle id="ITEM_2_PAD_INNER" cx="669.00" cy="544.00" r="34.94" fill="var(--accent-6)" fill-opacity="0.22"/>
    <g id="ITEM_2_ICON" transform="translate(641.0, 516.0)" data-icon-size="56" stroke-dasharray="6 4">
      <g transform="translate(-9.905355932203385,-9.905355932203385) scale(3.1587796610169487)" vector-effect="non-scaling-stroke" stroke-width="2.38" stroke-linecap="round" stroke-linejoin="round" stroke-opacity="1.0">
        <rect width="20" height="8" x="2" y="14" rx="2" vector-effect="non-scaling-stroke" fill="none" stroke="#f1f5f9"/>
        <path d="M6.01 18H6" vector-effect="non-scaling-stroke" fill="none" stroke="#f1f5f9"/>
        <path d="M10.01 18H10" vector-effect="non-scaling-stroke" fill="none" stroke="#f1f5f9"/>
        <path d="M15 10v4" vector-effect="non-scaling-stroke" fill="none" stroke="#f1f5f9"/>
        <path d="M17.84 7.17a4 4 0 0 0-5.66 0" vector-effect="non-scaling-stroke" fill="none" stroke="#f1f5f9"/>
        <path d="M20.66 4.34a8 8 0 0 0-11.31 0" vector-effect="non-scaling-stroke" fill="none" stroke="#f1f5f9"/>
      </g>
    </g>
    <line x1="617.0" y1="540.0" x2="605.0" y2="540.0" stroke="var(--accent-2)" stroke-width="2" stroke-dasharray="2 2" opacity="0.5"/>
    <circle cx="605.0" cy="540.0" r="3" fill="var(--accent-2)"/>
    <!-- Node 2 Frames -->
    <rect id="ITEM_2_HEAD_FRAME" x="335.0" y="500.0" width="260" height="40" fill="none" pointer-events="none"/>
    <rect id="ITEM_2_BODY_FRAME" x="215" y="540.0" width="380" height="120" fill="none" pointer-events="none"/>
    <rect id="ITEM_2_TEXT_BG" x="197" y="486" width="416" height="192" rx="22" fill="var(--panel)" fill-opacity="0.94" stroke="var(--primary-text)" stroke-width="2"/>
    <text id="ITEM_2_HEAD" x="595.0" y="500.0" font-family="var(--font-heading)" font-weight="bold" font-size="28" fill="var(--accent-6)" text-anchor="end" data-bg-id="ITEM_2_TEXT_BG" fill-opacity="1.0" stroke="none" style="font-size: 30px; font-family: Inter, Segoe UI, Kalam, Roboto, Helvetica, Arial, sans-serif; font-weight: 700; letter-spacing:-0.4px;" data-final-font-size="30">
      <tspan x="595.0" dy="28.25px">System Context</tspan>
    </text>
    <text id="ITEM_2_BODY" x="595.0" y="540.0" font-family="var(--font-body)" font-size="20" fill="var(--primary-text)" opacity="0.8" text-anchor="end" data-bg-id="ITEM_2_TEXT_BG" style="font-size: 26px; font-family: Inter, Segoe UI, Kalam, Roboto, Helvetica, Arial, sans-serif; font-weight: 400;" data-final-font-size="26">
      <tspan x="595.0" dy="26.86px">Directory paths and hostnames</tspan>
      <tspan x="595.0" dy="29.90px">reveal internal network</tspan>
      <tspan x="595.0" dy="29.90px">locations</tspan>
    </text>
    <circle id="ORBITAL_RINGS_ART_NODE_AURA_3" cx="1184.975663390289" cy="271.8844449083577" r="58" fill="var(--accent-1)" opacity="0.72" fill-opacity="0.15" stroke="var(--accent-1)" stroke-opacity="1.0"/>
    <circle id="ITEM_3_BORDER" cx="1184.975663390289" cy="271.8844449083577" r="42" fill="var(--icon-pad-bg)" stroke="var(--accent-1)" filter="url(#svge0b27db9-drop-shadow)" stroke-opacity="1.0"/>
    <circle id="ITEM_3_STROKE" cx="1184.975663390289" cy="271.8844449083577" r="34" fill="none" stroke="var(--accent-3)" stroke-width="3" stroke-dasharray="6 4" opacity="0.95"/>
    <!-- Node Icon Placeholder -->
    <circle id="ITEM_3_PAD" cx="1188.98" cy="275.88" r="44.80" fill="var(--icon-pad-bg)" stroke="var(--primary-text)" stroke-width="2" opacity="0.9"/>
    <circle id="ITEM_3_PAD_INNER" cx="1188.98" cy="275.88" r="34.94" fill="var(--accent-1)" fill-opacity="0.22"/>
    <g id="ITEM_3_ICON" transform="translate(1160.975663390289, 247.8844449083577)" data-icon-size="56" stroke-dasharray="6 4">
      <g transform="translate(-11.935999999999995,-11.935999999999995) scale(2.4959999999999996)">
        <path d="M12.8472 3.83391C12.9336 2.79732 13.8001 2 14.8403 2H17.1597C18.1999 2 19.0664 2.79732 19.1528 3.83391L19.3882 6.6587C19.422 7.06373 19.8992 7.2614 20.2095 6.99887L22.3734 5.16789C23.1674 4.49599 24.3439 4.54493 25.0795 5.28045L26.7196 6.92056C27.4551 7.65608 27.504 8.8326 26.8321 9.62666L25.0012 11.7905C24.7386 12.1008 24.9363 12.578 25.3413 12.6118L28.1661 12.8472C29.2027 12.9336 30 13.8001 30 14.8403V17.1597C30 18.1999 29.2027 19.0664 28.1661 19.1528L25.3413 19.3882C24.9363 19.422 24.7386 19.8992 25.0012 20.2095L26.8321 22.3733C27.504 23.1674 27.4551 24.3439 26.7196 25.0794L25.0795 26.7196C24.3439 27.4551 23.1674 27.504 22.3734 26.8321L20.2095 25.0011C19.8992 24.7386 19.422 24.9363 19.3882 25.3413L19.1528 28.1661C19.0664 29.2027 18.1999 30 17.1597 30H14.8403C13.8001 30 12.9336 29.2027 12.8472 28.1661L12.6118 25.3413C12.578 24.9363 12.1008 24.7386 11.7905 25.0012L9.62666 26.8321C8.8326 27.504 7.65608 27.4551 6.92056 26.7196L5.28045 25.0795C4.54493 24.3439 4.496 23.1674 5.16789 22.3734L6.99888 20.2095C7.26141 19.8992 7.06373 19.422 6.65871 19.3882L3.83391 19.1528C2.79732 19.0664 2 18.1999 2 17.1597V14.8403C2 13.8001 2.79732 12.9336 3.83391 12.8472L6.65871 12.6118C7.06373 12.578 7.2614 12.1008 6.99888 11.7905L5.16789 9.62664C4.496 8.83258 4.54493 7.65606 5.28045 6.92054L6.92056 5.28043C7.65608 4.54491 8.8326 4.49597 9.62666 5.16787L11.7905 6.99884C12.1008 7.26137 12.578 7.06369 12.6118 6.65867L12.8472 3.83391ZM21 16C21 13.2386 18.7614 11 16 11C13.2386 11 11 13.2386 11 16C11 18.7614 13.2386 21 16 21C18.7614 21 21 18.7614 21 16Z" fill="#B4ACBC"/>
        <path d="M24 16C24 20.4183 20.4183 24 16 24C11.5817 24 8 20.4183 8 16C8 11.5817 11.5817 8 16 8C20.4183 8 24 11.5817 24 16ZM20.5 16C20.5 13.5147 18.4853 11.5 16 11.5C13.5147 11.5 11.5 13.5147 11.5 16C11.5 18.4853 13.5147 20.5 16 20.5C18.4853 20.5 20.5 18.4853 20.5 16Z" fill="#998EA4"/>
        <path d="M10.5 16C10.5 12.9624 12.9624 10.5 16 10.5C19.0376 10.5 21.5 12.9624 21.5 16C21.5 19.0376 19.0376 21.5 16 21.5C12.9624 21.5 10.5 19.0376 10.5 16ZM21 16C21 13.2386 18.7614 11 16 11C13.2386 11 11 13.2386 11 16C11 18.7614 13.2386 21 16 21C18.7614 21 21 18.7614 21 16Z" fill="#CDC4D6"/>
      </g>
    </g>
    <line x1="1215.8294686552429" y1="235.11431163864674" x2="1244.975663390289" y2="271.8844449083577" stroke="var(--accent-3)" stroke-width="2" stroke-dasharray="2 2" opacity="0.5"/>
    <circle cx="1244.975663390289" cy="271.8844449083577" r="3" fill="var(--accent-3)"/>
    <!-- Node 3 Frames -->
    <rect id="ITEM_3_HEAD_FRAME" x="1254.975663390289" y="231.8844449083577" width="260" height="40" fill="none" pointer-events="none"/>
    <rect id="ITEM_3_BODY_FRAME" x="1255" y="271.8844449083577" width="380" height="120" fill="none" pointer-events="none"/>
    <rect id="ITEM_3_TEXT_BG" x="1236.975663390289" y="217.8844449083577" width="416.024336609711" height="192" rx="22" fill="var(--panel)" fill-opacity="0.94" stroke="var(--primary-text)" stroke-width="2"/>
    <text id="ITEM_3_HEAD" x="1254.975663390289" y="231.8844449083577" font-family="var(--font-heading)" font-weight="bold" font-size="28" fill="var(--accent-1)" text-anchor="start" data-bg-id="ITEM_3_TEXT_BG" fill-opacity="1.0" stroke="none" style="font-size: 30px; font-family: Inter, Segoe UI, Kalam, Roboto, Helvetica, Arial, sans-serif; font-weight: 700; letter-spacing:-0.4px;" data-final-font-size="30">
      <tspan x="1254.975663390289" dy="28.25px">Format History</tspan>
    </text>
    <text id="ITEM_3_BODY" x="1255.0" y="271.8844449083577" font-family="var(--font-body)" font-size="20" fill="var(--primary-text)" opacity="0.8" text-anchor="start" data-bg-id="ITEM_3_TEXT_BG" style="font-size: 26px; font-family: Inter, Segoe UI, Kalam, Roboto, Helvetica, Arial, sans-serif; font-weight: 400;" data-final-font-size="26">
      <tspan x="1255.0" dy="32.84px">Tracking conversion signs</tspan>
      <tspan x="1255.0" dy="29.90px">and software interaction logs</tspan>
    </text>
    <circle id="ORBITAL_RINGS_ART_NODE_AURA_4" cx="699.6710180769516" cy="850.247999463186" r="58" fill="var(--accent-2)" opacity="0.72" fill-opacity="0.15" stroke="var(--accent-2)" stroke-opacity="1.0"/>
    <circle id="ITEM_4_BORDER" cx="699.6710180769516" cy="850.247999463186" r="42" fill="var(--icon-pad-bg)" stroke="var(--accent-2)" filter="url(#svge0b27db9-drop-shadow)" stroke-opacity="1.0"/>
    <circle id="ITEM_4_STROKE" cx="699.6710180769516" cy="850.247999463186" r="34" fill="none" stroke="var(--accent-4)" stroke-width="3" stroke-dasharray="6 4" opacity="0.95"/>
    <!-- Node Icon Placeholder -->
    <circle id="ITEM_4_PAD" cx="703.67" cy="854.25" r="44.80" fill="var(--icon-pad-bg)" stroke="var(--primary-text)" stroke-width="2" opacity="0.9"/>
    <circle id="ITEM_4_PAD_INNER" cx="703.67" cy="854.25" r="34.94" fill="var(--accent-2)" fill-opacity="0.22"/>
    <g id="ITEM_4_ICON" transform="translate(675.6710180769516, 826.247999463186)" data-icon-size="56" stroke-dasharray="6 4">
      <g transform="translate(-11.935999999999995,-23.167999999999992) scale(2.4959999999999996)">
        <path d="M5.5 11C5.22386 11 5 11.2239 5 11.5V13H9V11.5C9 11.2239 8.77614 11 8.5 11H5.5Z" fill="#D3D3D3"/>
        <path d="M21.5 11C21.2239 11 21 11.2239 21 11.5V13H27V11.5C27 11.2239 26.7761 11 26.5 11H21.5Z" fill="#D3D3D3"/>
        <path d="M2 14C2 12.8954 2.89543 12 4 12H28C29.1046 12 30 12.8954 30 14V16.5L28 22L30 27.5V28C30 29.1046 29.1046 30 28 30H4C2.89543 30 2 29.1046 2 28V27.5L3.5 22L2 16.5V14Z" fill="#E6E6E6"/>
        <path d="M2 16.5C2 16.2239 2.22386 16 2.5 16H29.5C29.7761 16 30 16.2239 30 16.5V27.5C30 27.7761 29.7761 28 29.5 28H2.5C2.22386 28 2 27.7761 2 27.5V16.5Z" fill="#533566"/>
        <path d="M22 22C22 25.3137 19.3137 28 16 28C12.6863 28 10 25.3137 10 22C10 18.6863 12.6863 16 16 16C19.3137 16 22 18.6863 22 22Z" fill="#321B41"/>
        <path d="M16 27C18.7614 27 21 24.7614 21 22C21 19.2386 18.7614 17 16 17C13.2386 17 11 19.2386 11 22C11 24.7614 13.2386 27 16 27ZM16 29C12.134 29 9 25.866 9 22C9 18.134 12.134 15 16 15C19.866 15 23 18.134 23 22C23 25.866 19.866 29 16 29Z" fill="#9B9B9B"/>
        <path d="M18.5 22C18.5 23.3807 17.3807 24.5 16 24.5C14.6193 24.5 13.5 23.3807 13.5 22C13.5 20.6193 14.6193 19.5 16 19.5C17.3807 19.5 18.5 20.6193 18.5 22Z" fill="#433B6B"/>
        <path d="M19.0825 19.875C19.4967 20.5924 19.4448 21.3979 18.9665 21.674C18.4882 21.9501 17.7647 21.5924 17.3505 20.875C16.9363 20.1575 16.9882 19.3521 17.4665 19.0759C17.9448 18.7998 18.6683 19.1575 19.0825 19.875Z" fill="white"/>
      </g>
    </g>
    <line x1="668.8172128119977" y1="887.018132732897" x2="639.6710180769516" y2="850.247999463186" stroke="var(--accent-4)" stroke-width="2" stroke-dasharray="2 2" opacity="0.5"/>
    <circle cx="639.6710180769516" cy="850.247999463186" r="3" fill="var(--accent-4)"/>
    <!-- Node 4 Frames -->
    <rect id="ITEM_4_HEAD_FRAME" x="369.67101807695155" y="810.247999463186" width="260" height="40" fill="none" pointer-events="none"/>
    <rect id="ITEM_4_BODY_FRAME" x="249.7" y="850.247999463186" width="380" height="120" fill="none" pointer-events="none"/>
    <rect id="ITEM_4_TEXT_BG" x="231.7" y="796.247999463186" width="416" height="192" rx="22" fill="var(--panel)" fill-opacity="0.94" stroke="var(--primary-text)" stroke-width="2"/>
    <text id="ITEM_4_HEAD" x="629.6710180769516" y="810.247999463186" font-family="var(--font-heading)" font-weight="bold" font-size="28" fill="var(--accent-2)" text-anchor="end" data-bg-id="ITEM_4_TEXT_BG" fill-opacity="1.0" stroke="none" style="font-size: 26px; font-family: Inter, Segoe UI, Kalam, Roboto, Helvetica, Arial, sans-serif; font-weight: 700; letter-spacing:-0.4px;" data-final-font-size="26">
      <tspan x="629.6710180769516" dy="25.85px">Embedded Source Data</tspan>
    </text>
    <text id="ITEM_4_BODY" x="629.7" y="850.247999463186" font-family="var(--font-body)" font-size="20" fill="var(--primary-text)" opacity="0.8" text-anchor="end" data-bg-id="ITEM_4_TEXT_BG" style="font-size: 26px; font-family: Inter, Segoe UI, Kalam, Roboto, Helvetica, Arial, sans-serif; font-weight: 400;" data-final-font-size="26">
      <tspan x="629.7" dy="32.84px">Camera sensor properties and</tspan>
      <tspan x="629.7" dy="29.90px">data base authoring details</tspan>
    </text>
    <circle id="ORBITAL_RINGS_ART_NODE_AURA_5" cx="1255.6823004558082" cy="892.3804438347299" r="58" fill="var(--accent-3)" opacity="0.72" fill-opacity="0.15" stroke="var(--accent-3)" stroke-opacity="1.0"/>
    <circle id="ITEM_5_BORDER" cx="1255.6823004558082" cy="892.3804438347299" r="42" fill="var(--icon-pad-bg)" stroke="var(--accent-3)" filter="url(#svge0b27db9-drop-shadow)" stroke-opacity="1.0"/>
    <circle id="ITEM_5_STROKE" cx="1255.6823004558082" cy="892.3804438347299" r="34" fill="none" stroke="var(--accent-5)" stroke-width="3" stroke-dasharray="6 4" opacity="0.95"/>
    <!-- Node Icon Placeholder -->
    <circle id="ITEM_5_PAD" cx="1259.68" cy="896.38" r="44.80" fill="var(--icon-pad-bg)" stroke="var(--primary-text)" stroke-width="2" opacity="0.9"/>
    <circle id="ITEM_5_PAD_INNER" cx="1259.68" cy="896.38" r="34.94" fill="var(--accent-3)" fill-opacity="0.22"/>
    <g id="ITEM_5_ICON" transform="translate(1231.6823004558082, 868.3804438347299)" data-icon-size="56" stroke-dasharray="6 4">
      <g transform="translate(-9.905355932203385,-9.905355932203385) scale(3.1587796610169487)" vector-effect="non-scaling-stroke" stroke-width="2.38" stroke-linecap="round" stroke-linejoin="round" stroke-opacity="1.0">
        <path d="M12 6v6l4 2" vector-effect="non-scaling-stroke" fill="none" stroke="#f1f5f9"/>
        <circle cx="12" cy="12" r="10" vector-effect="non-scaling-stroke" fill="none" stroke="#f1f5f9"/>
      </g>
    </g>
    <line x1="1286.5361057207622" y1="929.1505771044409" x2="1315.6823004558082" y2="892.3804438347299" stroke="var(--accent-5)" stroke-width="2" stroke-dasharray="2 2" opacity="0.5"/>
    <circle cx="1315.6823004558082" cy="892.3804438347299" r="3" fill="var(--accent-5)"/>
    <!-- Node 5 Frames -->
    <rect id="ITEM_5_HEAD_FRAME" x="1325.6823004558082" y="852.3804438347299" width="260" height="40" fill="none" pointer-events="none"/>
    <rect id="ITEM_5_BODY_FRAME" x="1325.7" y="892.3804438347299" width="380" height="120" fill="none" pointer-events="none"/>
    <rect id="ITEM_5_TEXT_BG" x="1307.6823004558082" y="838.3804438347299" width="416.0176995441918" height="192" rx="22" fill="var(--panel)" fill-opacity="0.94" stroke="var(--primary-text)" stroke-width="2"/>
    <text id="ITEM_5_HEAD" x="1325.6823004558082" y="852.3804438347299" font-family="var(--font-heading)" font-weight="bold" font-size="28" fill="var(--accent-3)" text-anchor="start" data-bg-id="ITEM_5_TEXT_BG" fill-opacity="1.0" stroke="none" style="font-size: 30px; font-family: Inter, Segoe UI, Kalam, Roboto, Helvetica, Arial, sans-serif; font-weight: 700; letter-spacing:-0.4px;" data-final-font-size="30">
      <tspan x="1325.6823004558082" dy="28.25px">Temporal Metadata</tspan>
    </text>
    <text id="ITEM_5_BODY" x="1325.7" y="892.3804438347299" font-family="var(--font-body)" font-size="20" fill="var(--primary-text)" opacity="0.8" text-anchor="start" data-bg-id="ITEM_5_TEXT_BG" style="font-size: 26px; font-family: Inter, Segoe UI, Kalam, Roboto, Helvetica, Arial, sans-serif; font-weight: 400;" data-final-font-size="26">
      <tspan x="1325.7" dy="26.86px">Creation and modification</tspan>
      <tspan x="1325.7" dy="29.90px">dates aligned with</tspan>
      <tspan x="1325.7" dy="29.90px">mission records</tspan>
    </text>
  </g>
</svg>
