<?xml version='1.0' encoding='utf-8'?>
<svg xmlns="http://www.w3.org/2000/svg" width="1920" height="1080" viewBox="0 0 1920 1080" data-theme="dark">
  <style>
        @font-face {
            font-family: 'Inter';
            src: url('assets/fonts/Inter-Regular.ttf') format('truetype');
            font-weight: 400;
            font-style: normal;
            font-display: swap;
        }
        @font-face {
            font-family: 'Inter';
            src: url('assets/fonts/Inter-Bold.ttf') format('truetype');
            font-weight: 600;
            font-style: normal;
            font-display: swap;
        }
        @font-face {
            font-family: 'Inter';
            src: url('assets/fonts/Inter-Bold.ttf') format('truetype');
            font-weight: 800;
            font-style: normal;
            font-display: swap;
        }
        
:root {
    --background: #0f172a;
    --panel: #1e293b;
    --primary-text: #f1f5f9;
    --muted-text: #94a3b8;
    --inverse-text: #0f172a;
    --border: #334155;
    --shadow-color: #000000;
    --icon-pad-bg: #1e293b;
    --art-glow: #7dd3fc;
    --art-glow-opacity: 0.18;
    --art-sheen: #ffffff;
    --art-sheen-opacity: 0.18;
    --art-shadow: #000000;
    --art-shadow-opacity: 0.28;
    --art-muted-line: #64748b;
    --art-panel-tint: #1e293b;
    --font-family: 'Inter', 'Segoe UI', 'Kalam', Roboto, Helvetica, Arial, sans-serif;
    --radius-xl: 16px;
    --font-family-headline: 'Inter', 'Segoe UI', 'Kalam', Roboto, Helvetica, Arial, sans-serif;
    --font-family-body: 'Inter', 'Segoe UI', 'Kalam', Roboto, Helvetica, Arial, sans-serif;
    --font-heading: 'Inter', 'Segoe UI', 'Kalam', Roboto, Helvetica, Arial, sans-serif;
    --font-body: 'Inter', 'Segoe UI', 'Kalam', Roboto, Helvetica, Arial, sans-serif;
    --font-size-h1: 56px;
    --font-size-h2: 40px;
    --font-size-h3: 28px;
    --font-size-body: 24px;
    --font-size-caption: 18px;
    --secondary-text: var(--muted-text);
    --panel-border: var(--border);
    --font-weight-normal: 400;
    --font-weight-medium: 500;
    --font-weight-semibold: 600;
    --font-weight-bold: 700;
    --spacing-gutter-pct: 0.07;
    --spacing-top-pct: 0.15;
    --spacing-bottom-pct: 0.07;
    --spacing-title-y-pct: 0.055;
    --accent-1: #fbbf24;
    --accent-2: #fb923c;
    --accent-3: #f87171;
    --accent-4: #a3e635;
    --accent-5: #4ade80;
    --accent-6: #d4a574;
}
:root[data-theme="dark"] {
    --background: #0f172a;
    --panel: #1e293b;
    --primary-text: #f1f5f9;
    --muted-text: #94a3b8;
    --inverse-text: #0f172a;
    --border: #334155;
    --shadow-color: #000000;
    --icon-pad-bg: #1e293b;
    --art-glow: #7dd3fc;
    --art-glow-opacity: 0.18;
    --art-sheen: #ffffff;
    --art-sheen-opacity: 0.18;
    --art-shadow: #000000;
    --art-shadow-opacity: 0.28;
    --art-muted-line: #64748b;
    --art-panel-tint: #1e293b;
    --accent-1: #fbbf24;
    --accent-2: #fb923c;
    --accent-3: #f87171;
    --accent-4: #a3e635;
    --accent-5: #4ade80;
    --accent-6: #d4a574;
}
:root[data-theme="light"] {
    --background: #f8fafc;
    --panel: #ffffff;
    --primary-text: #0f172a;
    --muted-text: #64748b;
    --inverse-text: #ffffff;
    --border: #e2e8f0;
    --shadow-color: #000000;
    --icon-pad-bg: #1e293b;
    --art-glow: #0891b2;
    --art-glow-opacity: 0.10;
    --art-sheen: #ffffff;
    --art-sheen-opacity: 0.34;
    --art-shadow: #0f172a;
    --art-shadow-opacity: 0.14;
    --art-muted-line: #94a3b8;
    --art-panel-tint: #f1f5f9;
    --accent-1: #d97706;
    --accent-2: #ea580c;
    --accent-3: #dc2626;
    --accent-4: #65a30d;
    --accent-5: #16a34a;
    --accent-6: #92400e;
}</style>
  <rect x="0" y="0" width="1.92E+3" height="1.08E+3" fill="#252a34" stroke="none" id="programmatic_background"/>
  <line id="HEADER_DECOR" x1="960.0" x2="1080.0" y1="115.0" y2="115.0" stroke="var(--accent-1)" stroke-width="6" stroke-linecap="round"/>
  <defs>
    <pattern id="svg6fcf4407-napkin-hatch" patternUnits="userSpaceOnUse" width="12" height="12">
      <path d="M -3 12 L 12 -3 M 0 15 L 15 0" fill="none" stroke="var(--primary-text)" stroke-width="1" stroke-opacity="0.05"/>
    </pattern>
    <filter id="svg6fcf4407-shadow" x="-30%" y="-30%" width="160%" height="160%">
      <feDropShadow dx="0" dy="2" stdDeviation="3" flood-color="#000000" flood-opacity="0.08"/>
      <feDropShadow dx="0" dy="6" stdDeviation="10" flood-color="#000000" flood-opacity="0.12"/>
    </filter>
    <radialGradient id="svg6fcf4407-universal-edge-vignette" cx="50%" cy="50%" r="72%">
      <stop offset="0%" stop-color="var(--background)" stop-opacity="0"/>
      <stop offset="72%" stop-color="var(--background)" stop-opacity="0.12"/>
      <stop offset="100%" stop-color="var(--primary-text)" stop-opacity="0.08"/>
    </radialGradient>
    <linearGradient id="svg6fcf4407-universal-surface-sheen" x1="0%" y1="0%" x2="100%" y2="100%">
      <stop offset="0%" stop-color="var(--art-sheen)" stop-opacity="var(--art-sheen-opacity)"/>
      <stop offset="46%" stop-color="var(--art-sheen)" stop-opacity="0.035"/>
      <stop offset="100%" stop-color="var(--art-panel-tint)" stop-opacity="0.14"/>
    </linearGradient>
    <radialGradient id="svg6fcf4407-universal-icon-aura" cx="50%" cy="42%" r="64%">
      <stop offset="0%" stop-color="var(--art-glow)" stop-opacity="var(--art-glow-opacity)"/>
      <stop offset="100%" stop-color="var(--background)" stop-opacity="0"/>
    </radialGradient>
    <linearGradient id="svg6fcf4407-taxonomy-node-sheen" x1="0%" y1="0%" x2="100%" y2="100%">
      <stop offset="0%" stop-color="var(--inverse-text)" stop-opacity="0.18"/>
      <stop offset="100%" stop-color="var(--background)" stop-opacity="0.14"/>
    </linearGradient>
    <filter id="svg6fcf4407-text-glow" x="-20%" y="-20%" width="140%" height="140%">
      <feDropShadow dx="0" dy="0" stdDeviation="2" flood-color="#000000" flood-opacity="0.4"/>
    </filter>
    <marker id="svg6fcf4407-arrowhead" markerWidth="10" markerHeight="7" refX="9" refY="3.5" orient="auto" markerUnits="strokeWidth">
      <polygon points="0 0, 10 3.5, 0 7" fill="var(--muted-text)" opacity="0.6"/>
    </marker>
  </defs>
  <rect width="100%" height="100%" fill="var(--background)" id="CANVAS_BG"/>
  <rect width="100%" height="100%" fill="url(#svg6fcf4407-napkin-hatch)"/>
  <rect id="UNIVERSAL_EDGE_VIGNETTE" width="100%" height="100%" fill="url(#svg6fcf4407-universal-edge-vignette)" opacity="0.62"/>
  <text id="TITLE" x="960.0" y="59" text-anchor="middle" font-weight="800" font-size="56" fill="#f1f5f9" style="font-size: 60px; font-family: Inter, Segoe UI, Kalam, Roboto, Helvetica, Arial, sans-serif; font-weight: 700; letter-spacing:-1.2px;" data-final-font-size="60">
    <tspan x="960.0" dy="68.00px">NASA Image Processing Workflow</tspan>
  </text>
  <rect id="TITLE_FRAME" x="134" y="39" width="1652" height="103" fill="none"/>
  <g id="DIAGRAM_SCALER" transform="translate(50, 20) scale(0.95)">
    <!-- Parent Node (ITEM_1) - Top Box -->
    <g transform="translate(960, 235)">
      <rect id="ITEM_1_BG" x="-310" y="-90" width="620" height="180" rx="18" fill="var(--panel)" stroke="var(--accent-1)" stroke-width="6" filter="url(#svg6fcf4407-shadow)"/>
      <circle id="ITEM_1_PAD" cx="-140" cy="0" r="52" fill="var(--icon-pad-bg)" stroke="var(--primary-text)" opacity="0.9" fill-opacity="0.9" stroke-width="2"/>
      <circle id="ITEM_1_PAD_INNER" cx="-140" cy="0" r="40.56" fill="var(--accent-1)" fill-opacity="0.22"/>
      <circle cx="-140" cy="0" r="42" fill="none" stroke="var(--accent-1)" stroke-width="3" stroke-dasharray="6 4"/>
      <g id="ITEM_1_ICON" transform="translate(-180, -40)" data-icon-size="80" stroke-dasharray="6 4">
        <g transform="translate(-4.905714285714288,-5.992142857142857) scale(2.8971428571428572)">
          <path d="M14.3675 5.87431L10.6615 3.30015C10.2652 3.02489 9.72534 3.12861 9.44275 3.51981L1.77125 14.5646C1.496 14.9609 1.59462 15.5081 1.99091 15.7833L5.69698 18.3575C6.09327 18.6328 6.64046 18.5341 6.91571 18.1378L14.5872 7.09304C14.8625 6.69675 14.7638 6.14956 14.3675 5.87431ZM16.6809 25.9761L20.3869 28.5502C20.7832 28.8255 21.3253 28.7342 21.6006 28.3379L29.272 17.2931C29.5473 16.8968 29.4487 16.3496 29.0524 16.0744L25.3463 13.5002C24.95 13.225 24.4028 13.3236 24.1276 13.7199L16.4612 24.7573C16.1859 25.1536 16.2846 25.7008 16.6809 25.9761Z" fill="#635994"/>
          <path d="M21.4869 12.9951L19.3688 10.6316L16.2031 9.32501L15.1836 10.7928L17.5195 13.2275L20.4675 14.4628L21.4869 12.9951Z" fill="#998EA4"/>
          <path d="M12.4766 13.2646L11.0088 12.2451L10.4991 12.979L11.9668 13.9985L12.4766 13.2646ZM19.0888 17.8571L20.5566 18.8765L20.0468 19.6104L18.5791 18.5909L19.0888 17.8571ZM13.5848 19.4848L12.8509 18.9751L11.3217 21.1767L12.0556 21.6865L13.5848 19.4848ZM9.29531 24.1097L10.0365 24.6246L8.50732 26.8262L7.76611 26.3114L9.29531 24.1097Z" fill="#1C1C1C"/>
          <path d="M12.5996 6.82217L10.3979 5.29297L8.86874 7.49459L11.0704 9.02379L12.5996 6.82217ZM7.84939 8.96277L10.051 10.492L8.52181 12.6936L6.32019 11.1644L7.84939 8.96277ZM7.50231 14.1613L5.30069 12.6321L3.77148 14.8337L5.97311 16.3629L7.50231 14.1613ZM25.0828 15.4929L27.2844 17.0221L25.7552 19.2237L23.5536 17.6945L25.0828 15.4929ZM22.5342 19.1624L24.7358 20.6916L23.2066 22.8932L21.005 21.364L22.5342 19.1624ZM22.1872 24.3606L19.9855 22.8314L18.4563 25.033L20.658 26.5622L22.1872 24.3606Z" fill="#BCA4EB"/>
          <path d="M16.1371 9.27938L21.5458 13.0361C21.876 13.2655 22.3311 13.1899 22.5531 12.8546L23.2514 11.8492C23.4808 11.5189 23.4001 11.0712 23.0699 10.8418L17.6612 7.0851C17.331 6.85572 16.8833 6.9364 16.6539 7.26665L15.9556 8.27206C15.7262 8.6023 15.8069 9.05 16.1371 9.27938ZM8.98669 27.7029C8.56441 28.3108 7.72923 28.4613 7.12127 28.0391C6.51331 27.6168 6.36279 26.7816 6.78506 26.1737C7.20734 25.5657 8.04251 25.4152 8.65048 25.8374C9.25844 26.2597 9.40896 27.0949 8.98669 27.7029ZM12.3559 26.2356L6.9766 22.4993C6.40418 22.1017 6.3806 21.2585 6.9266 20.8327C8.43104 19.6691 10.5674 19.5537 12.2112 20.6955C13.8551 21.8373 14.4928 23.8795 13.9278 25.6955C13.7216 26.3683 12.9283 26.6332 12.3559 26.2356ZM10.5301 17.3519L15.9387 21.1087C16.269 21.3381 16.724 21.2625 16.946 20.9271L20.7028 15.5185C20.9322 15.1882 20.8515 14.7405 20.5212 14.5111L15.1126 10.7544C14.7823 10.525 14.3346 10.6057 14.1053 10.936L10.3485 16.3446C10.1191 16.6749 10.1998 17.1226 10.5301 17.3519Z" fill="#B4ACBC"/>
        </g>
      </g>
      <rect id="ITEM_1_TEXT_BG" x="-88.0" y="-78.0" width="416.0" height="170.0" rx="22" fill="var(--panel)" fill-opacity="0.94" stroke="none" stroke-opacity="0" stroke-width="1.5"/>
      <text id="ITEM_1_HEAD" x="120.0" y="-45.0" text-anchor="middle" font-weight="bold" font-size="26" fill="var(--accent-1)" data-bg-id="ITEM_1_BG" fill-opacity="1.0" stroke="none" style="font-size: 30px; font-family: Inter, Segoe UI, Kalam, Roboto, Helvetica, Arial, sans-serif; font-weight: 700; letter-spacing:-0.4px;" data-final-font-size="30">
        <tspan x="120.0" dy="30.75px">Raw Input</tspan>
      </text>
      <rect id="ITEM_1_HEAD_FRAME" x="-70" y="-45" width="380" height="45" fill="none"/>
      <text id="ITEM_1_BODY" x="125.0" y="0.0" text-anchor="middle" font-size="20" fill="var(--primary-text)" opacity="0.9" data-bg-id="ITEM_1_TEXT_BG" style="font-size: 26px; font-family: Inter, Segoe UI, Kalam, Roboto, Helvetica, Arial, sans-serif; font-weight: 400;" data-final-font-size="26">
        <tspan x="125.0" dy="28.04px">Original instrument output</tspan>
        <tspan x="125.0" dy="29.90px">captures initial data points</tspan>
      </text>
      <rect id="ITEM_1_BODY_FRAME" x="-55" y="0" width="360" height="96" fill="none"/>
    </g>
    <!-- Vertical connector from top box -->
    <path d="M 960 325 L 960 395" stroke="var(--muted-text)" stroke-width="6"/>
    <!-- Horizontal connector bar -->
    <path d="M 270 395 L 1650 395" stroke="var(--muted-text)" stroke-width="6"/>
    <!-- Vertical connectors to children - evenly spaced -->
    <line x1="270" y1="395" x2="270" y2="470" stroke="var(--muted-text)" stroke-width="6"/>
    <line x1="730" y1="395" x2="730" y2="470" stroke="var(--muted-text)" stroke-width="6"/>
    <line x1="1190" y1="395" x2="1190" y2="470" stroke="var(--muted-text)" stroke-width="6"/>
    <line x1="1650" y1="395" x2="1650" y2="470" stroke="var(--muted-text)" stroke-width="6"/>
    <!-- Child Node 1 (ITEM_2) -->
    <g transform="translate(270, 532)">
      <circle id="ITEM_2_PAD" cx="0" cy="0" r="62" fill="var(--icon-pad-bg)" stroke="var(--primary-text)" opacity="0.9" fill-opacity="0.9" stroke-width="2"/>
      <circle id="ITEM_2_PAD_INNER" cx="0" cy="0" r="48.36" fill="var(--accent-2)" fill-opacity="0.22"/>
      <circle cx="0" cy="0" r="50" fill="none" stroke="var(--accent-2)" stroke-width="3" stroke-dasharray="6 4" filter="url(#svg6fcf4407-shadow)"/>
      <g id="ITEM_2_ICON" transform="translate(-38, -38)" data-icon-size="76" stroke-dasharray="6 4">
        <g transform="translate(-14.45830508474577,-14.458305084745765) scale(4.371525423728814)" vector-effect="non-scaling-stroke" stroke-width="2.62" stroke-linecap="round" stroke-linejoin="round" stroke-opacity="1.0">
          <rect width="20" height="14" x="2" y="3" rx="2" vector-effect="non-scaling-stroke" fill="none" stroke="#f1f5f9"/>
          <line x1="8" x2="16" y1="21" y2="21" vector-effect="non-scaling-stroke" fill="none" stroke="#f1f5f9"/>
          <line x1="12" x2="12" y1="17" y2="21" vector-effect="non-scaling-stroke" fill="none" stroke="#f1f5f9"/>
        </g>
      </g>
      <g transform="translate(0, 90)">
        <rect x="-200" y="-15" width="400" height="228" rx="18" fill="var(--accent-2)" fill-opacity="0.4" stroke="var(--accent-2)" id="ITEM_2_BG" stroke-width="3"/>
        <rect id="ITEM_2_TEXT_BG" x="-208.0" y="-9.0" width="416.0" height="228.0" rx="22" fill="var(--panel)" fill-opacity="0.94" stroke="none" stroke-opacity="0" stroke-width="1.5"/>
        <text id="ITEM_2_HEAD" text-anchor="middle" font-weight="bold" font-size="24" fill="var(--primary-text)" x="0.0" y="6.0" data-bg-id="ITEM_2_BG" fill-opacity="1.0" stroke="none" style="font-size: 30px; font-family: Inter, Segoe UI, Kalam, Roboto, Helvetica, Arial, sans-serif; font-weight: 700; letter-spacing:-0.4px;" data-final-font-size="30">
          <tspan x="0.0" dy="29.25px">Scientific Calibration</tspan>
        </text>
        <rect id="ITEM_2_HEAD_FRAME" x="-190" y="6" width="380" height="42" fill="none"/>
        <text id="ITEM_2_BODY" text-anchor="middle" font-size="18" fill="var(--primary-text)" x="0.0" y="52.0" data-bg-id="ITEM_2_TEXT_BG" opacity="0.9" style="font-size: 26px; font-family: Inter, Segoe UI, Kalam, Roboto, Helvetica, Arial, sans-serif; font-weight: 400;" data-final-font-size="26">
          <tspan x="0.0" dy="38.44px">Images undergo noise reduction</tspan>
          <tspan x="0.0" dy="29.90px">and color correction</tspan>
        </text>
        <rect id="ITEM_2_BODY_FRAME" x="-190" y="52" width="380" height="148" fill="none"/>
      </g>
    </g>
    <!-- Child Node 2 (ITEM_3) -->
    <g transform="translate(730, 532)">
      <circle id="ITEM_3_PAD" cx="0" cy="0" r="62" fill="var(--icon-pad-bg)" stroke="var(--primary-text)" opacity="0.9" fill-opacity="0.9" stroke-width="2"/>
      <circle id="ITEM_3_PAD_INNER" cx="0" cy="0" r="48.36" fill="var(--accent-3)" fill-opacity="0.22"/>
      <circle cx="0" cy="0" r="50" fill="none" stroke="var(--accent-3)" stroke-width="3" stroke-dasharray="6 4" filter="url(#svg6fcf4407-shadow)"/>
      <g id="ITEM_3_ICON" transform="translate(-38, -38)" data-icon-size="76" stroke-dasharray="6 4">
        <g transform="translate(-15.362758620689654,-15.362758620689654) scale(4.446896551724138)" vector-effect="non-scaling-stroke" stroke-width="2.62" stroke-linecap="round" stroke-linejoin="round" stroke-opacity="1.0">
          <path d="M12 22C17.5228 22 22 17.5228 22 12C22 6.47715 17.5228 2 12 2C6.47715 2 2 6.47715 2 12C2 17.5228 6.47715 22 12 22Z" stroke="#f1f5f9" vector-effect="non-scaling-stroke" fill="none"/>
          <path d="M17.1973 9C17.0976 8.82774 16.9896 8.66089 16.8739 8.5" stroke="#f1f5f9" vector-effect="non-scaling-stroke" fill="none"/>
          <path d="M17.811 13.5C17.2683 15.6084 15.6084 17.2683 13.5 17.811" stroke="#f1f5f9" vector-effect="non-scaling-stroke" fill="none"/>
        </g>
      </g>
      <g transform="translate(0, 90)">
        <rect x="-200" y="-15" width="400" height="228" rx="18" fill="var(--accent-3)" fill-opacity="0.4" stroke="var(--accent-3)" id="ITEM_3_BG" stroke-width="3"/>
        <rect id="ITEM_3_TEXT_BG" x="-208.0" y="-9.0" width="416.0" height="228.0" rx="22" fill="var(--panel)" fill-opacity="0.94" stroke="none" stroke-opacity="0" stroke-width="1.5"/>
        <text id="ITEM_3_HEAD" text-anchor="middle" font-weight="bold" font-size="24" fill="var(--primary-text)" x="0.0" y="6.0" data-bg-id="ITEM_3_BG" fill-opacity="1.0" stroke="none" style="font-size: 30px; font-family: Inter, Segoe UI, Kalam, Roboto, Helvetica, Arial, sans-serif; font-weight: 700; letter-spacing:-0.4px;" data-final-font-size="30">
          <tspan x="0.0" dy="29.25px">Enhanced Analysis</tspan>
        </text>
        <rect id="ITEM_3_HEAD_FRAME" x="-190" y="6" width="380" height="42" fill="none"/>
        <text id="ITEM_3_BODY" text-anchor="middle" font-size="18" fill="var(--primary-text)" x="0.0" y="52.0" data-bg-id="ITEM_3_TEXT_BG" opacity="0.9" style="font-size: 26px; font-family: Inter, Segoe UI, Kalam, Roboto, Helvetica, Arial, sans-serif; font-weight: 400;" data-final-font-size="26">
          <tspan x="0.0" dy="32.46px">Contrast enhancement and</tspan>
          <tspan x="0.0" dy="29.90px">geometric corrections</tspan>
          <tspan x="0.0" dy="29.90px">are applied</tspan>
        </text>
        <rect id="ITEM_3_BODY_FRAME" x="-190" y="52" width="380" height="148" fill="none"/>
      </g>
    </g>
    <!-- Child Node 3 (ITEM_4) -->
    <g transform="translate(1190, 532)">
      <circle id="ITEM_4_PAD" cx="0" cy="0" r="62" fill="var(--icon-pad-bg)" stroke="var(--primary-text)" opacity="0.9" fill-opacity="0.9" stroke-width="2"/>
      <circle id="ITEM_4_PAD_INNER" cx="0" cy="0" r="48.36" fill="var(--accent-4)" fill-opacity="0.22"/>
      <circle cx="0" cy="0" r="50" fill="none" stroke="var(--accent-4)" stroke-width="3" stroke-dasharray="6 4" filter="url(#svg6fcf4407-shadow)"/>
      <g id="ITEM_4_ICON" transform="translate(-38, -38)" data-icon-size="76" stroke-dasharray="6 4">
        <g transform="translate(-17.207433628318583,-24.05486725663717) scale(3.423716814159292)">
          <path d="M25.34 7.68398C23.2959 7.68398 21.6389 9.34099 21.6389 11.385C21.6389 13.4291 23.2959 15.0861 25.34 15.0861C27.384 15.0861 29.041 13.4291 29.041 11.385C29.041 9.34099 27.384 7.68398 25.34 7.68398ZM20.621 11.385C20.621 8.77882 22.7338 6.66608 25.34 6.66608C27.9462 6.66608 30.0589 8.77882 30.0589 11.385C30.0589 13.9912 27.9462 16.104 25.34 16.104C22.7338 16.104 20.621 13.9912 20.621 11.385Z" fill="#D3D3D3"/>
          <path d="M24.19 17.675L26.12 12.655C26.32 12.135 26.2 11.535 25.8 11.135L21.08 6.41501C20.68 6.01501 20.09 5.89501 19.56 6.09501L14.54 8.02501C14.16 8.17501 13.81 8.39501 13.52 8.68501L2.42 19.785C1.86 20.345 1.86 21.245 2.42 21.795L10.42 29.795C10.98 30.355 11.88 30.355 12.43 29.795L23.53 18.695C23.82 18.405 24.04 18.065 24.19 17.675ZM19.21 13.015C18.52 12.325 18.52 11.215 19.21 10.525C19.9 9.83501 21.01 9.83501 21.7 10.525C22.39 11.215 22.39 12.325 21.7 13.015C21.01 13.695 19.89 13.695 19.21 13.015Z" fill="#FCD53F"/>
          <path d="M20.45 10.015C20.9 10.015 21.35 10.185 21.69 10.535C22.38 11.225 22.38 12.335 21.69 13.025C21.35 13.365 20.9 13.545 20.45 13.545C20 13.545 19.55 13.375 19.21 13.025C18.52 12.335 18.52 11.225 19.21 10.535C19.55 10.185 20 10.015 20.45 10.015ZM20.45 9.07501C19.73 9.07501 19.05 9.35501 18.54 9.86501C17.49 10.915 17.49 12.625 18.54 13.685C19.05 14.195 19.73 14.475 20.45 14.475C21.17 14.475 21.85 14.195 22.36 13.685C23.41 12.635 23.41 10.925 22.36 9.86501C21.85 9.35501 21.17 9.07501 20.45 9.07501Z" fill="#F8312F"/>
          <path d="M21.13 10.876C21.4111 10.876 21.6389 11.1039 21.6389 11.385C21.6389 12.3365 21.9998 13.2851 22.7199 14.0051C23.0027 14.2879 23.3184 14.5152 23.6476 14.6798L23.6499 14.6809C24.3452 15.033 25.1302 15.1569 25.8896 15.0509C26.168 15.0121 26.4252 15.2063 26.464 15.4847C26.5029 15.763 26.3087 16.0202 26.0303 16.0591C25.0702 16.193 24.0756 16.0371 23.1912 15.5896C22.7609 15.3743 22.357 15.0818 22.0001 14.7249C21.0801 13.8049 20.621 12.5934 20.621 11.385C20.621 11.1039 20.8489 10.876 21.13 10.876Z" fill="#D3D3D3"/>
        </g>
      </g>
      <g transform="translate(0, 90)">
        <rect x="-200" y="-15" width="400" height="228" rx="18" fill="var(--accent-4)" fill-opacity="0.4" stroke="var(--accent-4)" id="ITEM_4_BG" stroke-width="3"/>
        <rect id="ITEM_4_TEXT_BG" x="-208.0" y="-9.0" width="416.0" height="228.0" rx="22" fill="var(--panel)" fill-opacity="0.94" stroke="none" stroke-opacity="0" stroke-width="1.5"/>
        <text id="ITEM_4_HEAD" text-anchor="middle" font-weight="bold" font-size="24" fill="var(--primary-text)" x="0.0" y="6.0" data-bg-id="ITEM_4_BG" fill-opacity="1.0" stroke="none" style="font-size: 30px; font-family: Inter, Segoe UI, Kalam, Roboto, Helvetica, Arial, sans-serif; font-weight: 700; letter-spacing:-0.4px;" data-final-font-size="30">
          <tspan x="0.0" dy="29.25px">Public Release</tspan>
        </text>
        <rect id="ITEM_4_HEAD_FRAME" x="-190" y="6" width="380" height="42" fill="none"/>
        <text id="ITEM_4_BODY" text-anchor="middle" font-size="18" fill="var(--primary-text)" x="0.0" y="52.0" data-bg-id="ITEM_4_TEXT_BG" opacity="0.9" style="font-size: 26px; font-family: Inter, Segoe UI, Kalam, Roboto, Helvetica, Arial, sans-serif; font-weight: 400;" data-final-font-size="26">
          <tspan x="0.0" dy="38.44px">Final versions include labels</tspan>
          <tspan x="0.0" dy="29.90px">and specific formatting</tspan>
        </text>
        <rect id="ITEM_4_BODY_FRAME" x="-190" y="52" width="380" height="148" fill="none"/>
      </g>
    </g>
    <!-- Child Node 4 (ITEM_5) -->
    <g transform="translate(1650, 532)">
      <circle id="ITEM_5_PAD" cx="0" cy="0" r="62" fill="var(--icon-pad-bg)" stroke="var(--primary-text)" opacity="0.9" fill-opacity="0.9" stroke-width="2"/>
      <circle id="ITEM_5_PAD_INNER" cx="0" cy="0" r="48.36" fill="var(--accent-5)" fill-opacity="0.22"/>
      <circle cx="0" cy="0" r="50" fill="none" stroke="var(--accent-5)" stroke-width="3" stroke-dasharray="6 4" filter="url(#svg6fcf4407-shadow)"/>
      <g id="ITEM_5_ICON" transform="translate(-38, -38)" data-icon-size="76" stroke-dasharray="6 4">
        <g transform="translate(-10.36,-10.36) scale(6.908571428571428)" vector-effect="non-scaling-stroke" stroke-width="2.62" stroke-linecap="round" stroke-linejoin="round" stroke-opacity="1.0">
          <path id="Vector" fill="none" d="M1.5 5h11v7c0 0.2652 -0.1054 0.5196 -0.2929 0.7071S11.7652 13 11.5 13h-9c-0.26522 0 -0.51957 -0.1054 -0.70711 -0.2929C1.60536 12.5196 1.5 12.2652 1.5 12V5Z" vector-effect="non-scaling-stroke" stroke="#f1f5f9"/>
          <path id="Vector_2" fill="none" d="M13.5 4V2c0 -0.55228 -0.4477 -1 -1 -1l-11 0c-0.552285 0 -1 0.44772 -1 1v2c0 0.55228 0.447715 1 1 1l11 0c0.5523 0 1 -0.44772 1 -1Z" vector-effect="non-scaling-stroke" stroke="#f1f5f9"/>
          <path id="Vector_3" stroke="#f1f5f9" d="M1.5 5h11v7c0 0.2652 -0.1054 0.5196 -0.2929 0.7071S11.7652 13 11.5 13h-9c-0.26522 0 -0.51957 -0.1054 -0.70711 -0.2929C1.60536 12.5196 1.5 12.2652 1.5 12V5v0Z" vector-effect="non-scaling-stroke" fill="none"/>
          <path id="Vector_4" stroke="#f1f5f9" d="M13.5 4V2c0 -0.55228 -0.4477 -1 -1 -1l-11 0c-0.552285 0 -1 0.44772 -1 1v2c0 0.55228 0.447715 1 1 1l11 0c0.5523 0 1 -0.44772 1 -1Z" vector-effect="non-scaling-stroke" fill="none"/>
          <path id="Vector_5" stroke="#f1f5f9" d="M5.5 8h3" vector-effect="non-scaling-stroke" fill="none"/>
        </g>
      </g>
      <g transform="translate(0, 90)">
        <rect x="-200" y="-15" width="400" height="228" rx="18" fill="var(--accent-5)" fill-opacity="0.4" stroke="var(--accent-5)" id="ITEM_5_BG" stroke-width="3"/>
        <rect id="ITEM_5_TEXT_BG" x="-208.0" y="-9.0" width="416.0" height="228.0" rx="22" fill="var(--panel)" fill-opacity="0.94" stroke="none" stroke-opacity="0" stroke-width="1.5"/>
        <text id="ITEM_5_HEAD" text-anchor="middle" font-weight="bold" font-size="24" fill="var(--primary-text)" x="0.0" y="6.0" data-bg-id="ITEM_5_BG" fill-opacity="1.0" stroke="none" style="font-size: 30px; font-family: Inter, Segoe UI, Kalam, Roboto, Helvetica, Arial, sans-serif; font-weight: 700; letter-spacing:-0.4px;" data-final-font-size="30">
          <tspan x="0.0" dy="29.25px">Archived Master</tspan>
        </text>
        <rect id="ITEM_5_HEAD_FRAME" x="-190" y="6" width="380" height="42" fill="none"/>
        <text id="ITEM_5_BODY" text-anchor="middle" font-size="18" fill="var(--primary-text)" x="0.0" y="52.0" data-bg-id="ITEM_5_TEXT_BG" opacity="0.9" style="font-size: 26px; font-family: Inter, Segoe UI, Kalam, Roboto, Helvetica, Arial, sans-serif; font-weight: 400;" data-final-font-size="26">
          <tspan x="0.0" dy="38.44px">Original and modified versions</tspan>
          <tspan x="0.0" dy="29.90px">kept for verification</tspan>
        </text>
        <rect id="ITEM_5_BODY_FRAME" x="-190" y="52" width="380" height="148" fill="none"/>
      </g>
    </g>
  </g>
</svg>
