<?xml version='1.0' encoding='utf-8'?>
<svg xmlns="http://www.w3.org/2000/svg" width="1920" height="1080" viewBox="0 0 1920 1080" data-theme="light">
  <style>
        @font-face {
            font-family: 'Inter';
            src: url('assets/fonts/Inter-Regular.ttf') format('truetype');
            font-weight: 400;
            font-style: normal;
            font-display: swap;
        }
        @font-face {
            font-family: 'Inter';
            src: url('assets/fonts/Inter-Bold.ttf') format('truetype');
            font-weight: 600;
            font-style: normal;
            font-display: swap;
        }
        @font-face {
            font-family: 'Inter';
            src: url('assets/fonts/Inter-Bold.ttf') format('truetype');
            font-weight: 800;
            font-style: normal;
            font-display: swap;
        }
        
:root {
    --background: #f8fafc;
    --panel: #ffffff;
    --primary-text: #0f172a;
    --muted-text: #64748b;
    --inverse-text: #ffffff;
    --border: #e2e8f0;
    --shadow-color: #000000;
    --icon-pad-bg: #1e293b;
    --art-glow: #0891b2;
    --art-glow-opacity: 0.10;
    --art-sheen: #ffffff;
    --art-sheen-opacity: 0.34;
    --art-shadow: #0f172a;
    --art-shadow-opacity: 0.14;
    --art-muted-line: #94a3b8;
    --art-panel-tint: #f1f5f9;
    --font-family: 'Inter', 'Segoe UI', 'Kalam', Roboto, Helvetica, Arial, sans-serif;
    --radius-xl: 16px;
    --font-family-headline: 'Inter', 'Segoe UI', 'Kalam', Roboto, Helvetica, Arial, sans-serif;
    --font-family-body: 'Inter', 'Segoe UI', 'Kalam', Roboto, Helvetica, Arial, sans-serif;
    --font-heading: 'Inter', 'Segoe UI', 'Kalam', Roboto, Helvetica, Arial, sans-serif;
    --font-body: 'Inter', 'Segoe UI', 'Kalam', Roboto, Helvetica, Arial, sans-serif;
    --font-size-h1: 56px;
    --font-size-h2: 40px;
    --font-size-h3: 28px;
    --font-size-body: 24px;
    --font-size-caption: 18px;
    --secondary-text: var(--muted-text);
    --panel-border: var(--border);
    --font-weight-normal: 400;
    --font-weight-medium: 500;
    --font-weight-semibold: 600;
    --font-weight-bold: 700;
    --spacing-gutter-pct: 0.07;
    --spacing-top-pct: 0.15;
    --spacing-bottom-pct: 0.07;
    --spacing-title-y-pct: 0.055;
    --accent-1: #4f46e5;
    --accent-2: #059669;
    --accent-3: #db2777;
    --accent-4: #d97706;
    --accent-5: #0284c7;
    --accent-6: #7c3aed;
    --accent-7: #dc2626;
    --accent-8: #0d9488;
    --accent-9: #ea580c;
    --accent-10: #c026d3;
}
:root[data-theme="dark"] {
    --background: #0f172a;
    --panel: #1e293b;
    --primary-text: #f1f5f9;
    --muted-text: #94a3b8;
    --inverse-text: #0f172a;
    --border: #334155;
    --shadow-color: #000000;
    --icon-pad-bg: #1e293b;
    --art-glow: #7dd3fc;
    --art-glow-opacity: 0.18;
    --art-sheen: #ffffff;
    --art-sheen-opacity: 0.18;
    --art-shadow: #000000;
    --art-shadow-opacity: 0.28;
    --art-muted-line: #64748b;
    --art-panel-tint: #1e293b;
    --accent-1: #a5b4fc;
    --accent-2: #34d399;
    --accent-3: #f472b6;
    --accent-4: #fbbf24;
    --accent-5: #38bdf8;
    --accent-6: #c084fc;
    --accent-7: #f87171;
    --accent-8: #2dd4bf;
    --accent-9: #fb923c;
    --accent-10: #e879f9;
}
:root[data-theme="light"] {
    --background: #f8fafc;
    --panel: #ffffff;
    --primary-text: #0f172a;
    --muted-text: #64748b;
    --inverse-text: #ffffff;
    --border: #e2e8f0;
    --shadow-color: #000000;
    --icon-pad-bg: #1e293b;
    --art-glow: #0891b2;
    --art-glow-opacity: 0.10;
    --art-sheen: #ffffff;
    --art-sheen-opacity: 0.34;
    --art-shadow: #0f172a;
    --art-shadow-opacity: 0.14;
    --art-muted-line: #94a3b8;
    --art-panel-tint: #f1f5f9;
    --accent-1: #4f46e5;
    --accent-2: #059669;
    --accent-3: #db2777;
    --accent-4: #d97706;
    --accent-5: #0284c7;
    --accent-6: #7c3aed;
    --accent-7: #dc2626;
    --accent-8: #0d9488;
    --accent-9: #ea580c;
    --accent-10: #c026d3;
}</style>
  <rect x="0" y="0" width="1.92E+3" height="1.08E+3" fill="#252a34" stroke="none" id="programmatic_background"/>
  <line id="HEADER_DECOR" x1="960.0" x2="1080.0" y1="135.0" y2="135.0" stroke="var(--accent-1)" stroke-width="6" stroke-linecap="round"/>
  <defs>
    <filter id="svgc5deeba7-neon-glow" x="-50%" y="-50%" width="200%" height="200%">
      <feGaussianBlur stdDeviation="8" result="blur"/>
      <feComposite in="SourceGraphic" in2="blur" operator="over"/>
    </filter>
    <pattern id="svgc5deeba7-grid" width="40" height="40" patternUnits="userSpaceOnUse">
      <path d="M 40 0 L 0 0 0 40" fill="none" stroke="var(--primary-text)" stroke-width="1" opacity="0.05"/>
    </pattern>
    <radialGradient id="svgc5deeba7-universal-edge-vignette" cx="50%" cy="50%" r="72%">
      <stop offset="0%" stop-color="var(--background)" stop-opacity="0"/>
      <stop offset="72%" stop-color="var(--background)" stop-opacity="0.12"/>
      <stop offset="100%" stop-color="var(--primary-text)" stop-opacity="0.08"/>
    </radialGradient>
    <linearGradient id="svgc5deeba7-universal-surface-sheen" x1="0%" y1="0%" x2="100%" y2="100%">
      <stop offset="0%" stop-color="var(--art-sheen)" stop-opacity="var(--art-sheen-opacity)"/>
      <stop offset="46%" stop-color="var(--art-sheen)" stop-opacity="0.035"/>
      <stop offset="100%" stop-color="var(--art-panel-tint)" stop-opacity="0.14"/>
    </linearGradient>
    <radialGradient id="svgc5deeba7-universal-icon-aura" cx="50%" cy="42%" r="64%">
      <stop offset="0%" stop-color="var(--art-glow)" stop-opacity="var(--art-glow-opacity)"/>
      <stop offset="100%" stop-color="var(--background)" stop-opacity="0"/>
    </radialGradient>
    <radialGradient id="svgc5deeba7-circuit-board-art-glow" cx="50%" cy="52%" r="68%">
      <stop offset="0%" stop-color="var(--inverse-text)" stop-opacity="0.14"/>
      <stop offset="100%" stop-color="var(--background)" stop-opacity="0"/>
    </radialGradient>
    <linearGradient id="svgc5deeba7-circuit-board-art-sheen" x1="16%" y1="0%" x2="86%" y2="100%">
      <stop offset="0%" stop-color="var(--inverse-text)" stop-opacity="0.22"/>
      <stop offset="52%" stop-color="var(--inverse-text)" stop-opacity="0.035"/>
      <stop offset="100%" stop-color="var(--background)" stop-opacity="0.14"/>
    </linearGradient>
    <filter id="svgc5deeba7-text-glow" x="-20%" y="-20%" width="140%" height="140%">
      <feDropShadow dx="0" dy="0" stdDeviation="2" flood-color="#000000" flood-opacity="0.4"/>
    </filter>
    <filter id="svgc5deeba7-shadow" x="-30%" y="-30%" width="160%" height="160%">
      <feDropShadow dx="0" dy="2" stdDeviation="3" flood-color="#000000" flood-opacity="0.08"/>
      <feDropShadow dx="0" dy="6" stdDeviation="10" flood-color="#000000" flood-opacity="0.12"/>
    </filter>
    <marker id="svgc5deeba7-arrowhead" markerWidth="10" markerHeight="7" refX="9" refY="3.5" orient="auto" markerUnits="strokeWidth">
      <polygon points="0 0, 10 3.5, 0 7" fill="var(--muted-text)" opacity="0.6"/>
    </marker>
  </defs>
  <rect width="100%" height="100%" fill="var(--background)" id="CANVAS_BG"/>
  <ellipse id="CIRCUIT-BOARD_ART_GLOW" cx="960" cy="600" rx="650" ry="340" fill="url(#svgc5deeba7-circuit-board-art-glow)" opacity="0.84"/>
  <rect id="UNIVERSAL_EDGE_VIGNETTE" width="100%" height="100%" fill="url(#svgc5deeba7-universal-edge-vignette)" opacity="0.62"/>
  <rect width="100%" height="100%" fill="url(#svgc5deeba7-grid)"/>
  <text id="TITLE" x="960.0" y="59" text-anchor="middle" font-weight="800" font-size="56" fill="#0f172a" style="font-size: 60px; font-family: Inter, Segoe UI, Kalam, Roboto, Helvetica, Arial, sans-serif; font-weight: 700; letter-spacing:-1.2px;" data-final-font-size="60">
    <tspan x="960.0" dy="68.00px">Sensor Errors and Parallax Effects</tspan>
  </text>
  <rect id="TITLE_FRAME" x="134" y="59" width="1652" height="103" fill="none"/>
  <g transform="translate(0, 0)">
    <!-- Central motherboard core -->
    <rect x="752" y="402" width="416" height="276" fill="none" stroke="var(--primary-text)" stroke-width="2" opacity="0.22" rx="20"/>
    <rect x="780" y="430" width="360" height="220" fill="var(--panel)" fill-opacity="0.98" stroke="var(--primary-text)" stroke-width="4" rx="24" filter="url(#svgc5deeba7-neon-glow)"/>
    <rect x="826" y="454" width="268" height="88" fill="none" stroke="var(--primary-text)" stroke-width="2" opacity="0.18" rx="16"/>
    <rect x="830" y="552" width="260" height="68" fill="var(--icon-pad-bg)" fill-opacity="0.2" stroke="var(--primary-text)" stroke-width="1.5" stroke-opacity="0.18" rx="14"/>
    <!-- Core landing pads -->
    <line x1="752" y1="474" x2="780" y2="474" stroke="var(--primary-text)" stroke-width="4" opacity="0.45"/>
    <line x1="752" y1="540" x2="780" y2="540" stroke="var(--primary-text)" stroke-width="4" opacity="0.45"/>
    <line x1="752" y1="606" x2="780" y2="606" stroke="var(--primary-text)" stroke-width="4" opacity="0.45"/>
    <line x1="1140" y1="474" x2="1168" y2="474" stroke="var(--primary-text)" stroke-width="4" opacity="0.45"/>
    <line x1="1140" y1="540" x2="1168" y2="540" stroke="var(--primary-text)" stroke-width="4" opacity="0.45"/>
    <line x1="1140" y1="606" x2="1168" y2="606" stroke="var(--primary-text)" stroke-width="4" opacity="0.45"/>
    <circle cx="780" cy="474" r="11" fill="var(--icon-pad-bg)" stroke="var(--primary-text)" stroke-width="2" opacity="0.9"/>
    <circle cx="780" cy="540" r="11" fill="var(--icon-pad-bg)" stroke="var(--primary-text)" stroke-width="2" opacity="0.9"/>
    <circle cx="780" cy="606" r="11" fill="var(--icon-pad-bg)" stroke="var(--primary-text)" stroke-width="2" opacity="0.9"/>
    <circle cx="1140" cy="474" r="11" fill="var(--icon-pad-bg)" stroke="var(--primary-text)" stroke-width="2" opacity="0.9"/>
    <circle cx="1140" cy="540" r="11" fill="var(--icon-pad-bg)" stroke="var(--primary-text)" stroke-width="2" opacity="0.9"/>
    <circle cx="1140" cy="606" r="11" fill="var(--icon-pad-bg)" stroke="var(--primary-text)" stroke-width="2" opacity="0.9"/>
    <!-- Internal buswork -->
    <line x1="780" y1="474" x2="872" y2="474" stroke="var(--primary-text)" stroke-width="3" opacity="0.28"/>
    <line x1="780" y1="540" x2="890" y2="540" stroke="var(--primary-text)" stroke-width="3" opacity="0.28"/>
    <line x1="780" y1="606" x2="872" y2="606" stroke="var(--primary-text)" stroke-width="3" opacity="0.28"/>
    <line x1="1048" y1="474" x2="1140" y2="474" stroke="var(--primary-text)" stroke-width="3" opacity="0.28"/>
    <line x1="1030" y1="540" x2="1140" y2="540" stroke="var(--primary-text)" stroke-width="3" opacity="0.28"/>
    <line x1="1048" y1="606" x2="1140" y2="606" stroke="var(--primary-text)" stroke-width="3" opacity="0.28"/>
    <line x1="892" y1="500" x2="1028" y2="500" stroke="var(--primary-text)" stroke-width="2.5" opacity="0.24"/>
    <line x1="900" y1="584" x2="1020" y2="584" stroke="var(--primary-text)" stroke-width="2.5" opacity="0.24"/>
    <line x1="960" y1="474" x2="960" y2="552" stroke="var(--primary-text)" stroke-width="2.5" opacity="0.24"/>
    <circle cx="890" cy="500" r="5" fill="var(--primary-text)" opacity="0.45"/>
    <circle cx="930" cy="500" r="5" fill="var(--primary-text)" opacity="0.22"/>
    <circle cx="990" cy="500" r="5" fill="var(--primary-text)" opacity="0.22"/>
    <circle cx="1030" cy="500" r="5" fill="var(--primary-text)" opacity="0.45"/>
    <circle cx="900" cy="584" r="4" fill="var(--primary-text)" opacity="0.3"/>
    <circle cx="1020" cy="584" r="4" fill="var(--primary-text)" opacity="0.3"/>
    <circle cx="960" cy="496" r="34" fill="var(--icon-pad-bg)" stroke="var(--primary-text)" stroke-width="2" opacity="0.95"/>
    <g id="RESULT_ICON" transform="translate(934, 470)" data-icon-size="52" stroke-dasharray="6 4">
      <g transform="translate(-2.2033898305084745,-1.1016949152542406) scale(2.3502824858757063)" vector-effect="non-scaling-stroke" stroke-width="2.57" stroke-linecap="round" stroke-linejoin="round" stroke-opacity="1.0">
        <path d="m12 14 4-4" vector-effect="non-scaling-stroke" fill="none" stroke="#0f172a"/>
        <path d="M3.34 19a10 10 0 1 1 17.32 0" vector-effect="non-scaling-stroke" fill="none" stroke="#0f172a"/>
      </g>
    </g>
    <rect id="RESULT_HEAD_FRAME" x="846" y="564" width="228" height="42" fill="none"/>
    <text id="RESULT_HEAD" x="960.0" y="564.0" font-size="28" font-weight="900" fill="#0f172a" text-anchor="middle" data-max-lines="3" data-min-font-size="14" style="font-size: 16px; font-family: Inter, Segoe UI, Kalam, Roboto, Helvetica, Arial, sans-serif; font-weight: 700; letter-spacing:-0.4px;" data-final-font-size="16">
      <tspan x="960.0" dy="13.80px">Sensor Errors and</tspan>
      <tspan x="960.0" dy="20.00px">Parallax Effects</tspan>
    </text>
  </g>
  <g transform="translate(0, 0)">
    <!-- PCB Trace Line -->
    <path d="M 752 474 L 680 474 L 590 390 L 590 340 L 590 340" fill="none" stroke="var(--accent-1)" stroke-width="6" stroke-linejoin="bevel" opacity="0.8"/>
    <path d="M 752 474 L 680 474 L 590 390 L 590 340 L 590 340" fill="none" stroke="var(--accent-1)" stroke-width="2" filter="url(#svgc5deeba7-neon-glow)"/>
    <!-- Terminal Node (Icon Holder) -->
    <circle cx="560.0" cy="340" r="53" fill="none" stroke="var(--accent-1)" stroke-width="2" opacity="0.4"/>
    <circle cx="560.0" cy="340" r="45" fill="var(--panel)" stroke="var(--accent-1)" stroke-width="4" filter="url(#svgc5deeba7-neon-glow)"/>
    <!-- Node Data Pins -->
    <line x1="560.0" y1="280" x2="560.0" y2="295" stroke="var(--accent-1)" stroke-width="3" opacity="0.6"/>
    <line x1="560.0" y1="385" x2="560.0" y2="400" stroke="var(--accent-1)" stroke-width="3" opacity="0.6"/>
    <circle id="ITEM_1_PAD" cx="560.00" cy="340.00" r="40.00" fill="var(--icon-pad-bg)" stroke="var(--primary-text)" stroke-width="2" opacity="0.9"/>
    <circle id="ITEM_1_PAD_INNER" cx="560.00" cy="340.00" r="31.20" fill="var(--accent-5)" fill-opacity="0.22"/>
    <g id="ITEM_1_ICON" transform="translate(535.0, 315)" data-icon-size="50" stroke-dasharray="6 4">
      <g transform="translate(-11.722123893805314,-10.065486725663725) scale(2.2088495575221243)">
        <path d="M16.25 29.25C16.25 29.6642 15.9143 30 15.5 30C15.0858 30 14.75 29.6642 14.75 29.25V18.2847L6.35413 29.6945C6.10863 30.0281 5.63916 30.0996 5.30554 29.8541C4.97192 29.6086 4.90047 29.1391 5.14597 28.8055L13.8421 16.9877C13.3669 16.9119 13 16.4964 13 16C13 15.4505 13.4497 15 13.9983 15H14.75V11.75C14.75 11.3358 15.0858 11 15.5 11C15.9143 11 16.25 11.3358 16.25 11.75V15H17.0018C17.5504 15 18 15.4505 18 16C18 16.421 17.7361 16.7839 17.366 16.9306L26.1041 28.8055C26.3496 29.1391 26.2782 29.6086 25.9446 29.8541C25.6109 30.0996 25.1415 30.0281 24.896 29.6945L16.25 17.9449V29.25Z" fill="#7167A4"/>
        <path d="M3.22683 4.27809C2.6088 5.92946 3.30622 7.78583 4.80973 8.60757L5.74923 8.95918L7.99999 8.00013L8.99999 4.00013L8.19939 2.40199L7.26328 2.05165C5.5897 1.68436 3.84485 2.62671 3.22683 4.27809Z" fill="#AEDDFF"/>
        <path d="M22.8343 8.94678L27.5555 10.7137L29 13.0001L28 15.0001L25.7687 15.3837L21.0817 13.6296L20 10.5001L22.8343 8.94678Z" fill="#D3D3D3"/>
        <path d="M8.59557 3.94216L11.9373 3.80078L23.1846 8.01009L20.731 14.566L9.48157 10.3559L7.48633 7.72365L8.59557 3.94216Z" fill="#BEBEBE"/>
        <path d="M11.9459 3.80389L8.19965 2.40186L5.74609 8.95777L9.49233 10.3598L11.9459 3.80389Z" fill="#5235A6"/>
        <path d="M29.39 11.4001L27.5169 10.6991L25.7644 15.3819L27.6375 16.0829C28.1547 16.2765 28.731 16.0141 28.9246 15.4969L29.9761 12.6872C30.1697 12.1699 29.9073 11.5937 29.39 11.4001Z" fill="#5235A6"/>
      </g>
    </g>
    <rect id="ITEM_1_HEAD_FRAME" x="175.0" y="290" width="320" height="40" fill="none"/>
    <rect id="ITEM_1_TEXT_BG" x="97" y="276" width="416" height="222" rx="22" fill="var(--panel)" fill-opacity="0.94" stroke="var(--accent-1)" stroke-width="2"/>
    <text id="ITEM_1_HEAD" x="495.0" y="290.0" font-weight="bold" font-size="24" fill="var(--primary-text)" text-anchor="end" data-bg-id="ITEM_1_TEXT_BG" fill-opacity="1.0" style="font-size: 30px; font-family: Inter, Segoe UI, Kalam, Roboto, Helvetica, Arial, sans-serif; font-weight: 700; letter-spacing:-0.4px;" data-final-font-size="30">
      <tspan x="495.0" dy="28.25px">Distance Estimation</tspan>
    </text>
    <rect id="ITEM_1_BODY_FRAME" x="115" y="360" width="380" height="120" fill="none"/>
    <text id="ITEM_1_BODY" x="495.0" y="360.0" font-size="16" fill="var(--primary-text)" text-anchor="end" data-bg-id="ITEM_1_TEXT_BG" style="font-size: 26px; font-family: Inter, Segoe UI, Kalam, Roboto, Helvetica, Arial, sans-serif; font-weight: 400;" data-final-font-size="26">
      <tspan x="495.0" dy="32.84px">Featureless skies make nearby</tspan>
      <tspan x="495.0" dy="29.90px">objects seem much farther</tspan>
    </text>
  </g>
  <g transform="translate(0, 0)">
    <!-- PCB Trace Line -->
    <path d="M 752 606 L 680 606 L 590 690 L 590 740 L 590 740" fill="none" stroke="var(--accent-2)" stroke-width="6" stroke-linejoin="bevel" opacity="0.8"/>
    <path d="M 752 606 L 680 606 L 590 690 L 590 740 L 590 740" fill="none" stroke="var(--accent-2)" stroke-width="2" filter="url(#svgc5deeba7-neon-glow)"/>
    <!-- Terminal Node (Icon Holder) -->
    <circle cx="560.0" cy="740" r="53" fill="none" stroke="var(--accent-2)" stroke-width="2" opacity="0.4"/>
    <circle cx="560.0" cy="740" r="45" fill="var(--panel)" stroke="var(--accent-2)" stroke-width="4" filter="url(#svgc5deeba7-neon-glow)"/>
    <!-- Node Data Pins -->
    <line x1="560.0" y1="680" x2="560.0" y2="695" stroke="var(--accent-2)" stroke-width="3" opacity="0.6"/>
    <line x1="560.0" y1="785" x2="560.0" y2="800" stroke="var(--accent-2)" stroke-width="3" opacity="0.6"/>
    <circle id="ITEM_2_PAD" cx="560.00" cy="740.00" r="40.00" fill="var(--icon-pad-bg)" stroke="var(--primary-text)" stroke-width="2" opacity="0.9"/>
    <circle id="ITEM_2_PAD_INNER" cx="560.00" cy="740.00" r="31.20" fill="var(--accent-6)" fill-opacity="0.22"/>
    <g id="ITEM_2_ICON" transform="translate(535.0, 715)" data-icon-size="50" stroke-dasharray="6 4">
      <g transform="translate(-11.977777777777781,-11.977777777777781) scale(3.081481481481482)" vector-effect="non-scaling-stroke" fill="#f1f5f9" fill-opacity="1.0" stroke="none">
        <path fill="#f1f5f9" d="M7 13H3c-.55 0-1-.45-1-1s.45-1 1-1h4c.55 0 1 .45 1 1s-.45 1-1 1M6 8c0-.55-.45-1-1-1H4c-.55 0-1 .45-1 1s.45 1 1 1h1c.55 0 1-.45 1-1m16 4c0 2.76-2.24 5-5 5H4c-.55 0-1-.45-1-1s.45-1 1-1h9c-.42-.58-.75-1.26-.9-2H10c-.55 0-1-.45-1-1s.45-1 1-1h2.1c.15-.74.48-1.42.9-2H8c-.55 0-1-.45-1-1s.45-1 1-1h9c2.76 0 5 2.24 5 5" vector-effect="non-scaling-stroke" stroke="none"/>
      </g>
    </g>
    <rect id="ITEM_2_HEAD_FRAME" x="175.0" y="690" width="320" height="40" fill="none"/>
    <rect id="ITEM_2_TEXT_BG" x="97" y="676" width="416" height="222" rx="22" fill="var(--panel)" fill-opacity="0.94" stroke="var(--accent-2)" stroke-width="2"/>
    <text id="ITEM_2_HEAD" x="495.0" y="690.0" font-weight="bold" font-size="24" fill="var(--accent-6)" text-anchor="end" data-bg-id="ITEM_2_TEXT_BG" fill-opacity="1.0" style="font-size: 30px; font-family: Inter, Segoe UI, Kalam, Roboto, Helvetica, Arial, sans-serif; font-weight: 700; letter-spacing:-0.4px;" data-final-font-size="30">
      <tspan x="495.0" dy="28.25px">Parallax Motion</tspan>
    </text>
    <rect id="ITEM_2_BODY_FRAME" x="115" y="760" width="380" height="120" fill="none"/>
    <text id="ITEM_2_BODY" x="495.0" y="760.0" font-size="16" fill="var(--primary-text)" text-anchor="end" data-bg-id="ITEM_2_TEXT_BG" style="font-size: 26px; font-family: Inter, Segoe UI, Kalam, Roboto, Helvetica, Arial, sans-serif; font-weight: 400;" data-final-font-size="26">
      <tspan x="495.0" dy="32.84px">Moving observers cause slow</tspan>
      <tspan x="495.0" dy="29.90px">objects to appear rapid</tspan>
    </text>
  </g>
  <g transform="translate(0, 0)">
    <!-- PCB Trace Line -->
    <path d="M 1168 474 L 1240 474 L 1330 390 L 1330 340 L 1330 340" fill="none" stroke="var(--accent-3)" stroke-width="6" stroke-linejoin="bevel" opacity="0.8"/>
    <path d="M 1168 474 L 1240 474 L 1330 390 L 1330 340 L 1330 340" fill="none" stroke="var(--accent-3)" stroke-width="2" filter="url(#svgc5deeba7-neon-glow)"/>
    <!-- Terminal Node (Icon Holder) -->
    <circle cx="1360.0" cy="340" r="53" fill="none" stroke="var(--accent-3)" stroke-width="2" opacity="0.4"/>
    <circle cx="1360.0" cy="340" r="45" fill="var(--panel)" stroke="var(--accent-3)" stroke-width="4" filter="url(#svgc5deeba7-neon-glow)"/>
    <!-- Node Data Pins -->
    <line x1="1360.0" y1="280" x2="1360.0" y2="295" stroke="var(--accent-3)" stroke-width="3" opacity="0.6"/>
    <line x1="1360.0" y1="385" x2="1360.0" y2="400" stroke="var(--accent-3)" stroke-width="3" opacity="0.6"/>
    <circle id="ITEM_3_PAD" cx="1360.00" cy="340.00" r="40.00" fill="var(--icon-pad-bg)" stroke="var(--primary-text)" stroke-width="2" opacity="0.9"/>
    <circle id="ITEM_3_PAD_INNER" cx="1360.00" cy="340.00" r="31.20" fill="var(--accent-7)" fill-opacity="0.22"/>
    <g id="ITEM_3_ICON" transform="translate(1335.0, 315)" data-icon-size="50" stroke-dasharray="6 4">
      <g transform="translate(-10.65714285714286,-20.685714285714287) scale(2.2285714285714286)">
        <path d="M5.5 11C5.22386 11 5 11.2239 5 11.5V13H9V11.5C9 11.2239 8.77614 11 8.5 11H5.5Z" fill="#D3D3D3"/>
        <path d="M21.5 11C21.2239 11 21 11.2239 21 11.5V13H27V11.5C27 11.2239 26.7761 11 26.5 11H21.5Z" fill="#D3D3D3"/>
        <path d="M2 14C2 12.8954 2.89543 12 4 12H28C29.1046 12 30 12.8954 30 14V16.5L28 22L30 27.5V28C30 29.1046 29.1046 30 28 30H4C2.89543 30 2 29.1046 2 28V27.5L3.5 22L2 16.5V14Z" fill="#E6E6E6"/>
        <path d="M2 16.5C2 16.2239 2.22386 16 2.5 16H29.5C29.7761 16 30 16.2239 30 16.5V27.5C30 27.7761 29.7761 28 29.5 28H2.5C2.22386 28 2 27.7761 2 27.5V16.5Z" fill="#533566"/>
        <path d="M22 22C22 25.3137 19.3137 28 16 28C12.6863 28 10 25.3137 10 22C10 18.6863 12.6863 16 16 16C19.3137 16 22 18.6863 22 22Z" fill="#321B41"/>
        <path d="M16 27C18.7614 27 21 24.7614 21 22C21 19.2386 18.7614 17 16 17C13.2386 17 11 19.2386 11 22C11 24.7614 13.2386 27 16 27ZM16 29C12.134 29 9 25.866 9 22C9 18.134 12.134 15 16 15C19.866 15 23 18.134 23 22C23 25.866 19.866 29 16 29Z" fill="#9B9B9B"/>
        <path d="M18.5 22C18.5 23.3807 17.3807 24.5 16 24.5C14.6193 24.5 13.5 23.3807 13.5 22C13.5 20.6193 14.6193 19.5 16 19.5C17.3807 19.5 18.5 20.6193 18.5 22Z" fill="#433B6B"/>
        <path d="M19.0825 19.875C19.4967 20.5924 19.4448 21.3979 18.9665 21.674C18.4882 21.9501 17.7647 21.5924 17.3505 20.875C16.9363 20.1575 16.9882 19.3521 17.4665 19.0759C17.9448 18.7998 18.6683 19.1575 19.0825 19.875Z" fill="white"/>
      </g>
    </g>
    <rect id="ITEM_3_HEAD_FRAME" x="1425.0" y="290" width="320" height="40" fill="none"/>
    <rect id="ITEM_3_TEXT_BG" x="1407" y="276" width="416" height="222" rx="22" fill="var(--panel)" fill-opacity="0.94" stroke="var(--accent-3)" stroke-width="2"/>
    <text id="ITEM_3_HEAD" x="1425.0" y="290.0" font-weight="bold" font-size="24" fill="var(--accent-7)" text-anchor="start" data-bg-id="ITEM_3_TEXT_BG" fill-opacity="1.0" style="font-size: 30px; font-family: Inter, Segoe UI, Kalam, Roboto, Helvetica, Arial, sans-serif; font-weight: 700; letter-spacing:-0.4px;" data-final-font-size="30">
      <tspan x="1425.0" dy="28.25px">Infrared Distortion</tspan>
    </text>
    <rect id="ITEM_3_BODY_FRAME" x="1425" y="360" width="380" height="120" fill="none"/>
    <text id="ITEM_3_BODY" x="1425.0" y="360.0" font-size="16" fill="var(--primary-text)" text-anchor="start" data-bg-id="ITEM_3_TEXT_BG" style="font-size: 26px; font-family: Inter, Segoe UI, Kalam, Roboto, Helvetica, Arial, sans-serif; font-weight: 400;" data-final-font-size="26">
      <tspan x="1425.0" dy="26.86px">Heat signatures create</tspan>
      <tspan x="1425.0" dy="29.90px">misleading impressions of</tspan>
      <tspan x="1425.0" dy="29.90px">shape and motion</tspan>
    </text>
  </g>
  <g transform="translate(0, 0)">
    <!-- PCB Trace Line -->
    <path d="M 1168 606 L 1240 606 L 1330 690 L 1330 740 L 1330 740" fill="none" stroke="var(--accent-4)" stroke-width="6" stroke-linejoin="bevel" opacity="0.8"/>
    <path d="M 1168 606 L 1240 606 L 1330 690 L 1330 740 L 1330 740" fill="none" stroke="var(--accent-4)" stroke-width="2" filter="url(#svgc5deeba7-neon-glow)"/>
    <!-- Terminal Node (Icon Holder) -->
    <circle cx="1360.0" cy="740" r="53" fill="none" stroke="var(--accent-4)" stroke-width="2" opacity="0.4"/>
    <circle cx="1360.0" cy="740" r="45" fill="var(--panel)" stroke="var(--accent-4)" stroke-width="4" filter="url(#svgc5deeba7-neon-glow)"/>
    <!-- Node Data Pins -->
    <line x1="1360.0" y1="680" x2="1360.0" y2="695" stroke="var(--accent-4)" stroke-width="3" opacity="0.6"/>
    <line x1="1360.0" y1="785" x2="1360.0" y2="800" stroke="var(--accent-4)" stroke-width="3" opacity="0.6"/>
    <circle id="ITEM_4_PAD" cx="1360.00" cy="740.00" r="40.00" fill="var(--icon-pad-bg)" stroke="var(--primary-text)" stroke-width="2" opacity="0.9"/>
    <circle id="ITEM_4_PAD_INNER" cx="1360.00" cy="740.00" r="31.20" fill="var(--accent-8)" fill-opacity="0.22"/>
    <g id="ITEM_4_ICON" transform="translate(1335.0, 715)" data-icon-size="50" stroke-dasharray="6 4">
      <g transform="translate(-8.844067796610172,-8.844067796610172) scale(2.820338983050848)" vector-effect="non-scaling-stroke" stroke-width="2.31" stroke-linecap="round" stroke-linejoin="round" stroke-opacity="1.0">
        <path d="m2 2 20 20" vector-effect="non-scaling-stroke" fill="none" stroke="#f1f5f9"/>
        <path d="M8.35 2.69A10 10 0 0 1 21.3 15.65" vector-effect="non-scaling-stroke" fill="none" stroke="#f1f5f9"/>
        <path d="M19.08 19.08A10 10 0 1 1 4.92 4.92" vector-effect="non-scaling-stroke" fill="none" stroke="#f1f5f9"/>
      </g>
    </g>
    <rect id="ITEM_4_HEAD_FRAME" x="1425.0" y="690" width="320" height="40" fill="none"/>
    <rect id="ITEM_4_TEXT_BG" x="1407" y="676" width="416" height="222" rx="22" fill="var(--panel)" fill-opacity="0.94" stroke="var(--accent-4)" stroke-width="2"/>
    <text id="ITEM_4_HEAD" x="1425.0" y="690.0" font-weight="bold" font-size="24" fill="var(--primary-text)" text-anchor="start" data-bg-id="ITEM_4_TEXT_BG" fill-opacity="1.0" style="font-size: 30px; font-family: Inter, Segoe UI, Kalam, Roboto, Helvetica, Arial, sans-serif; font-weight: 700; letter-spacing:-0.4px;" data-final-font-size="30">
      <tspan x="1425.0" dy="28.25px">Sensor Noise</tspan>
    </text>
    <rect id="ITEM_4_BODY_FRAME" x="1425" y="760" width="380" height="120" fill="none"/>
    <text id="ITEM_4_BODY" x="1425.0" y="760.0" font-size="16" fill="var(--primary-text)" text-anchor="start" data-bg-id="ITEM_4_TEXT_BG" style="font-size: 26px; font-family: Inter, Segoe UI, Kalam, Roboto, Helvetica, Arial, sans-serif; font-weight: 400;" data-final-font-size="26">
      <tspan x="1425.0" dy="26.86px">Poor calibration and missing</tspan>
      <tspan x="1425.0" dy="29.90px">metadata hinder</tspan>
      <tspan x="1425.0" dy="29.90px">accurate analysis</tspan>
    </text>
  </g>
</svg>
